<svg xmlns="http://www.w3.org/2000/svg" width="1200" height="720" viewBox="0 0 1200 720" role="img">
<style>
text { font-family: Arial, sans-serif; fill: #1f2937; }
.title { font-size: 22px; font-weight: 700; }
.subtitle { font-size: 13px; fill: #4b5563; }
.axis-label { font-size: 12px; fill: #4b5563; }
.legend { font-size: 13px; fill: #111827; }
.grid { stroke: #e5e7eb; stroke-width: 1; }
.axis { stroke: #374151; stroke-width: 1.2; }
.zero { stroke: #111827; stroke-width: 1.4; stroke-dasharray: 5 5; }
</style>
<rect x="0" y="0" width="1200" height="720" fill="#ffffff" />
<text x="92" y="36" class="title">aapl_wrds_20260408_20260410 PnL / Equity Curve Comparison</text>
<text x="92" y="58" class="subtitle">Equity after each accounting event; values are dollars for one-share target-position prototype.</text>
<line x1="92" y1="638.00" x2="1164" y2="638.00" class="grid" /><text x="80" y="642.00" class="axis-label" text-anchor="end">-153</text>
<line x1="92" y1="524.80" x2="1164" y2="524.80" class="grid" /><text x="80" y="528.80" class="axis-label" text-anchor="end">-120</text>
<line x1="92" y1="411.60" x2="1164" y2="411.60" class="grid" /><text x="80" y="415.60" class="axis-label" text-anchor="end">-87</text>
<line x1="92" y1="298.40" x2="1164" y2="298.40" class="grid" /><text x="80" y="302.40" class="axis-label" text-anchor="end">-55</text>
<line x1="92" y1="185.20" x2="1164" y2="185.20" class="grid" /><text x="80" y="189.20" class="axis-label" text-anchor="end">-22</text>
<line x1="92" y1="72.00" x2="1164" y2="72.00" class="grid" /><text x="80" y="76.00" class="axis-label" text-anchor="end">11</text>
<line x1="92" y1="72" x2="92" y2="638" class="axis" />
<line x1="92" y1="638" x2="1164" y2="638" class="axis" />
<line x1="92" y1="111.03" x2="1164" y2="111.03" class="zero" />
<polyline fill="none" stroke="#1f77b4" stroke-width="2.4" points="92.00,111.03 92.00,111.55 92.04,112.17 92.04,112.38 92.05,113.47 92.07,114.83 92.10,115.83 92.13,116.53 92.14,116.98 92.15,117.27 92.17,117.53 92.17,117.70 92.18,118.79 92.18,119.87 92.21,120.69 92.26,121.35 92.28,122.09 92.28,122.76 92.34,123.77 92.37,124.44 92.43,125.64 92.46,126.12 92.49,126.98 92.53,127.67 92.59,127.95 92.59,128.15 92.61,128.60 92.70,129.18 92.83,130.08 92.90,131.02 92.94,131.56 93.10,132.33 93.10,132.93 93.10,133.89 93.12,134.44 93.56,135.92 93.63,136.30 93.76,136.75 93.78,137.21 94.06,137.88 94.09,138.57 94.45,139.15 94.66,139.62 94.73,140.08 94.78,140.63 94.78,140.94 94.78,141.25 94.97,141.52 95.09,142.18 95.11,142.52 95.19,143.00 95.36,143.26 95.36,143.45 95.36,143.55 95.39,143.84 95.39,144.03 95.39,144.31 95.47,144.70 95.48,144.91 95.75,145.51 95.85,145.82 95.88,146.11 96.08,146.47 96.12,146.82 96.26,147.44 96.31,147.71 96.63,147.95 96.76,148.17 96.77,148.45 97.09,148.85 97.45,149.09 97.47,149.57 97.74,150.12 97.74,150.36 98.05,150.96 98.25,151.49 98.43,151.97 98.69,152.32 98.79,152.49 98.80,152.80 98.80,153.06 98.91,153.21 99.63,153.69 99.81,154.16 99.98,154.47 100.12,154.76 100.12,154.89 100.16,155.15 100.21,155.62 100.21,155.89 100.62,156.20 100.64,156.79 100.97,157.06 101.22,157.47 101.36,157.80 101.38,158.02 101.39,158.42 101.56,158.80 102.01,159.19 102.18,159.47 102.37,159.86 102.38,160.12 102.49,160.33 102.49,160.67 102.88,160.91 102.88,160.98 103.13,161.32 103.72,161.60 103.73,161.80 103.92,162.20 103.97,162.54 104.20,162.80 104.61,163.04 104.77,163.37 105.05,163.59 105.17,163.66 105.25,163.87 105.33,163.97 105.42,164.14 105.70,164.42 105.79,164.66 105.96,165.00 106.71,165.24 106.71,165.34 106.71,165.48 106.71,165.62 106.82,165.76 106.87,166.00 107.11,166.31 107.27,166.70 107.37,166.99 107.47,167.20 107.87,167.51 108.11,167.63 108.21,167.89 108.55,168.01 108.58,168.28 108.79,168.40 109.02,168.64 109.17,168.90 109.25,169.13 109.28,169.26 109.49,169.59 109.66,169.78 109.74,169.92 109.81,170.11 110.08,170.24 110.19,170.29 110.34,170.50 110.56,170.66 110.68,170.81 111.13,170.91 111.29,171.15 111.98,171.29 111.98,171.46 112.69,171.82 112.74,172.05 112.87,172.22 113.15,172.61 113.16,172.70 113.35,172.87 113.66,173.18 113.72,173.42 114.08,173.73 114.37,173.94 114.93,174.38 115.06,174.49 115.51,174.63 115.58,174.90 116.05,175.11 116.17,175.24 116.20,175.48 116.56,175.69 116.82,176.03 117.08,176.31 117.17,176.65 117.63,176.93 117.95,177.27 118.47,177.51 118.56,177.93 118.61,178.06 119.63,178.39 119.84,178.54 119.91,178.75 119.96,179.03 120.16,179.18 120.20,179.37 120.39,179.68 120.81,179.90 121.08,180.16 121.26,180.30 121.48,180.52 121.61,180.64 121.62,180.74 121.77,181.02 121.93,181.23 122.02,181.43 122.07,181.64 122.12,181.84 122.13,182.08 122.38,182.39 122.48,182.57 122.55,182.74 122.78,182.81 122.88,182.96 122.90,183.25 123.10,183.46 123.19,183.70 123.49,183.97 123.80,184.18 124.49,184.46 124.63,184.59 124.94,184.80 125.12,185.04 125.17,185.13 125.32,185.25 125.36,185.35 125.56,185.50 125.79,185.69 125.80,185.87 125.86,186.00 126.31,186.24 126.34,186.42 126.65,186.66 126.87,186.83 127.21,187.00 127.48,187.14 127.65,187.26 127.79,187.34 128.39,187.48 128.65,187.67 128.87,187.86 129.06,188.03 129.17,188.25 129.26,188.48 129.90,188.62 130.33,188.79 130.46,188.89 130.61,189.06 131.50,189.22 131.56,189.39 131.61,189.58 132.22,189.82 132.99,190.01 133.21,190.20 133.55,190.37 133.63,190.51 133.72,190.75 133.77,190.92 133.85,191.06 134.26,191.28 134.35,191.47 134.80,191.66 134.85,191.78 135.06,191.98 135.45,192.16 136.07,192.36 136.07,192.47 136.07,192.64 136.26,192.81 136.70,192.91 136.70,193.05 136.90,193.19 136.90,193.32 137.43,193.53 137.75,193.69 137.93,193.89 138.05,194.01 138.17,194.15 138.38,194.29 138.38,194.46 138.38,194.56 138.39,194.79 138.45,195.04 138.45,195.18 138.46,195.40 138.47,195.54 138.63,195.73 138.88,195.87 138.89,196.06 138.93,196.49 139.08,196.71 139.51,196.85 140.05,197.04 140.48,197.14 140.82,197.33 140.98,197.52 141.17,197.69 141.17,197.98 141.22,198.15 141.32,198.38 141.62,198.58 141.66,198.69 141.66,198.86 142.04,199.06 142.43,199.31 142.45,199.55 142.45,199.68 142.46,199.86 142.51,200.13 142.95,200.37 143.17,200.49 143.56,200.65 143.62,200.75 144.27,201.04 144.51,201.25 144.64,201.44 144.90,201.73 144.97,201.81 145.12,202.02 145.25,202.12 145.49,202.33 145.62,202.57 146.19,202.64 146.40,202.81 146.67,203.00 146.88,203.22 147.12,203.43 147.19,203.62 147.69,203.77 147.94,204.05 148.57,204.36 148.70,204.56 148.86,204.77 149.29,204.94 149.33,205.08 149.45,205.29 149.80,205.51 149.95,205.63 149.97,205.66 150.15,205.87 150.35,205.97 150.35,206.18 150.76,206.32 150.96,206.39 151.05,206.63 151.19,206.76 151.53,207.01 151.84,207.21 151.92,207.38 152.18,207.66 152.42,207.90 152.45,208.07 152.70,208.31 152.79,208.57 153.07,208.79 153.17,209.12 153.23,209.43 153.60,209.72 153.93,209.86 154.10,210.05 154.13,210.24 154.44,210.51 154.83,210.87 155.17,211.10 155.99,211.30 156.18,211.46 156.29,211.54 156.70,211.78 157.19,212.02 157.33,212.16 157.43,212.33 157.65,212.47 158.21,212.71 158.21,212.85 158.78,212.99 159.14,213.14 159.61,213.30 159.67,213.47 159.82,213.71 159.86,213.81 160.07,213.95 160.54,214.17 160.70,214.33 160.70,214.40 160.89,214.53 161.29,214.79 161.55,215.08 161.63,215.25 162.19,215.41 162.22,215.50 162.49,215.60 163.26,215.77 163.61,215.87 163.64,216.01 163.70,216.25 164.17,216.39 164.26,216.46 164.95,216.53 165.04,216.75 165.09,216.97 165.61,217.15 166.26,217.28 166.31,217.40 166.93,217.66 167.28,217.85 167.47,217.97 167.61,218.11 167.74,218.21 167.75,218.35 167.97,218.52 168.07,218.69 168.16,218.88 168.22,218.93 168.31,219.00 168.57,219.31 168.63,219.50 168.76,219.65 169.56,219.83 169.63,219.90 170.16,220.10 170.66,220.38 170.81,220.60 171.85,220.86 173.03,221.03 173.50,221.24 173.70,221.37 173.74,221.51 174.42,221.89 174.46,222.16 174.54,222.34 175.19,222.56 175.50,222.73 175.83,222.95 175.99,223.28 176.47,223.54 177.02,223.68 177.26,223.81 177.52,224.04 177.77,224.23 178.45,224.36 179.07,224.62 179.32,224.78 179.76,224.91 180.06,225.10 180.47,225.26 180.72,225.39 181.12,225.67 181.32,225.84 181.55,225.94 181.56,226.08 182.58,226.31 182.70,226.49 182.99,226.63 183.24,226.82 183.24,227.01 183.35,227.25 183.69,227.53 183.81,227.66 183.93,227.80 184.25,228.06 184.25,228.20 184.42,228.35 184.76,228.52 184.82,228.66 184.94,228.76 185.00,228.87 185.18,228.97 185.37,229.12 185.86,229.35 186.14,229.52 186.19,229.61 186.20,229.76 186.31,229.97 186.33,230.16 186.44,230.34 186.56,230.45 186.71,230.62 186.73,230.83 186.80,230.96 186.84,231.07 186.96,231.17 187.08,231.31 187.16,231.51 187.23,231.58 187.50,231.72 187.85,231.86 188.17,231.98 188.30,232.13 188.44,232.27 188.54,232.37 188.69,232.51 189.16,232.61 189.23,232.68 189.40,232.75 189.85,232.89 189.91,233.04 190.16,233.23 190.60,233.34 190.84,233.47 191.07,233.71 191.09,234.02 191.09,234.16 191.16,234.35 191.19,234.57 191.32,234.74 191.46,235.05 191.76,235.17 192.29,235.33 192.52,235.50 192.69,235.57 192.78,235.64 193.14,235.91 193.57,236.02 193.57,236.12 193.78,236.22 193.88,236.36 193.93,236.46 194.13,236.60 194.21,236.81 194.52,236.98 194.95,237.25 195.19,237.46 195.60,237.63 195.98,237.84 196.48,238.04 196.53,238.13 196.54,238.39 196.83,238.49 197.14,238.78 197.41,238.94 197.58,239.01 197.94,239.20 198.39,239.37 198.73,239.49 199.04,239.78 199.57,239.93 199.64,240.04 199.76,240.18 200.00,240.28 200.20,240.45 200.39,240.69 200.80,240.98 200.94,241.28 201.18,241.45 201.43,241.69 201.69,241.88 201.97,242.10 202.25,242.32 202.25,242.53 202.42,242.65 202.76,242.82 203.15,243.05 203.31,243.30 203.53,243.48 203.74,243.75 203.94,244.03 204.95,244.27 205.09,244.47 205.55,244.71 205.80,244.88 206.11,244.99 206.21,245.06 206.26,245.23 206.52,245.38 206.65,245.54 207.07,245.64 207.35,245.81 207.48,245.86 207.56,246.02 207.58,246.12 207.58,246.26 207.68,246.36 207.77,246.47 207.87,246.65 207.93,246.83 208.11,247.02 208.43,247.15 208.52,247.22 208.58,247.33 208.61,247.43 209.08,247.63 209.26,247.84 209.42,247.94 209.44,248.05 209.91,248.22 209.95,248.39 210.17,248.63 210.19,248.72 210.35,248.98 210.74,249.25 210.87,249.44 210.91,249.66 211.23,249.77 211.46,250.01 211.49,250.18 211.78,250.28 211.99,250.50 212.19,250.76 212.29,250.97 213.15,251.18 213.16,251.26 213.32,251.42 213.50,251.67 213.64,251.86 214.09,252.00 214.28,252.07 214.74,252.21 214.86,252.38 215.09,252.55 215.15,252.74 215.40,252.96 215.52,253.07 215.65,253.29 215.74,253.46 215.80,253.68 215.88,253.91 215.97,254.05 216.02,254.17 216.16,254.30 216.58,254.44 216.58,254.51 216.65,254.58 216.68,254.77 217.26,254.89 217.38,254.96 217.65,255.15 217.90,255.28 217.93,255.37 218.19,255.49 218.35,255.63 218.38,255.71 218.44,255.85 218.59,255.99 218.67,256.12 218.95,256.23 219.19,256.42 219.27,256.54 219.41,256.67 219.62,256.78 219.66,256.93 219.78,257.12 220.02,257.24 220.30,257.36 220.75,257.53 220.93,257.60 221.56,257.74 221.70,257.88 221.80,258.02 222.02,258.29 222.22,258.50 222.67,258.57 222.99,258.82 223.29,259.05 223.40,259.18 223.74,259.32 224.17,259.49 225.02,259.67 225.09,259.80 225.50,259.94 225.53,260.08 225.76,260.22 226.32,260.47 226.56,260.59 226.92,260.73 227.03,260.90 227.42,261.04 227.94,261.14 227.98,261.33 228.39,261.45 228.84,261.59 228.97,261.76 229.30,261.93 229.38,262.07 229.73,262.24 229.90,262.43 230.74,262.59 231.51,262.69 231.64,262.83 231.66,262.97 231.75,263.14 231.90,263.29 232.36,263.46 232.36,263.62 233.35,263.72 233.84,263.89 233.90,264.07 234.00,264.24 234.40,264.37 234.84,264.55 234.98,264.68 235.15,264.80 235.40,264.94 235.92,265.13 236.45,265.32 236.77,265.51 236.83,265.68 236.94,265.89 237.79,266.06 238.36,266.26 238.57,266.40 238.82,266.56 238.91,266.61 238.91,266.75 238.94,266.88 239.27,267.06 239.49,267.16 239.80,267.23 239.87,267.40 239.94,267.57 240.04,267.67 240.55,267.78 241.20,267.98 241.30,268.12 241.30,268.22 241.88,268.40 241.93,268.53 242.14,268.74 242.37,268.91 243.15,269.08 243.20,269.19 243.47,269.32 244.31,269.60 244.63,269.75 244.75,269.94 245.57,270.13 246.06,270.25 246.36,270.42 246.50,270.68 246.97,270.80 247.45,270.91 247.77,271.08 248.46,271.32 248.48,271.59 248.62,271.76 248.92,271.97 249.48,272.18 249.48,272.35 249.48,272.52 249.48,272.68 250.01,272.86 251.50,273.05 251.86,273.17 252.34,273.24 252.68,273.41 252.92,273.64 253.39,273.83 253.40,273.93 253.66,274.17 253.70,274.41 253.94,274.72 254.28,274.93 254.58,275.10 255.03,275.31 255.73,275.55 255.96,275.67 256.27,275.92 256.48,276.03 256.71,276.23 257.13,276.44 257.76,276.61 258.14,276.77 258.51,276.90 258.89,277.09 258.89,277.16 258.98,277.26 259.14,277.37 259.77,277.63 260.58,277.75 260.58,277.99 260.98,278.12 260.98,278.30 261.26,278.40 261.38,278.54 261.63,278.71 261.94,278.85 262.46,279.05 262.63,279.22 262.69,279.43 262.93,279.64 263.06,279.81 263.19,279.95 263.25,280.08 263.38,280.25 263.71,280.48 264.11,280.80 264.48,280.98 264.54,281.20 264.69,281.29 264.84,281.49 265.41,281.70 265.56,281.77 265.79,281.87 265.92,281.97 265.95,282.11 265.97,282.32 266.29,282.45 266.47,282.66 267.01,282.76 267.32,282.83 268.08,283.00 268.13,283.11 268.47,283.31 269.22,283.61 269.29,283.83 269.39,284.00 269.73,284.26 269.85,284.55 270.35,284.79 270.48,284.90 270.79,285.12 271.00,285.34 271.50,285.51 272.21,285.69 272.27,285.81 272.37,286.13 272.38,286.36 272.39,286.63 272.51,286.89 273.60,287.15 273.60,287.27 274.08,287.47 274.35,287.65 274.80,287.85 274.87,288.02 275.81,288.16 276.48,288.28 276.48,288.45 276.55,288.61 277.07,288.81 278.82,288.95 278.90,289.23 279.04,289.55 279.78,289.66 279.86,289.81 280.19,290.12 280.67,290.29 280.76,290.43 280.95,290.64 281.53,290.84 281.79,291.05 281.82,291.25 281.98,291.43 282.08,291.50 282.18,291.67 282.40,291.79 283.33,291.91 283.55,292.11 283.99,292.35 285.11,292.53 285.70,292.70 285.92,292.80 286.34,293.01 286.57,293.21 286.85,293.39 287.10,293.63 287.37,293.80 287.55,294.04 288.26,294.37 288.38,294.50 289.38,294.66 289.91,294.76 290.02,294.97 290.29,295.14 290.72,295.28 290.86,295.59 291.48,295.72 291.75,295.86 292.23,296.10 292.37,296.43 292.37,296.75 292.54,296.94 292.65,297.12 292.67,297.30 292.70,297.54 293.37,297.82 293.76,298.03 293.84,298.27 294.17,298.71 294.25,299.06 294.58,299.26 294.95,299.38 295.19,299.57 295.35,299.68 295.55,299.85 295.59,300.07 296.78,300.26 296.96,300.40 296.99,300.59 297.69,300.81 297.91,300.95 299.03,301.17 299.51,301.39 299.59,301.53 300.07,301.67 300.24,301.86 300.60,302.15 301.10,302.41 301.54,302.63 302.14,302.77 302.26,302.94 303.53,303.16 304.06,303.29 304.64,303.49 304.70,303.78 305.11,303.94 305.18,304.08 305.45,304.23 305.60,304.33 306.50,304.52 306.68,304.85 306.73,305.02 306.89,305.28 307.30,305.42 307.86,305.64 308.08,305.86 308.25,306.14 308.93,306.28 309.18,306.41 309.54,306.52 309.67,306.65 309.98,306.72 309.98,306.89 310.65,307.17 310.65,307.24 310.95,307.44 311.01,307.65 311.40,307.84 311.72,308.10 312.19,308.23 312.27,308.46 313.06,308.72 313.42,308.99 314.00,309.25 314.18,309.46 314.59,309.71 315.00,309.87 315.22,310.07 315.75,310.37 316.20,310.50 317.98,310.62 318.05,310.74 318.26,310.88 318.75,311.05 319.29,311.19 319.50,311.33 319.62,311.55 319.74,311.74 319.91,311.84 320.70,312.02 320.79,312.22 321.17,312.39 321.89,312.53 323.57,312.69 324.21,312.84 324.81,313.01 324.82,313.24 325.71,313.39 325.78,313.46 326.35,313.58 326.56,313.68 327.14,313.98 327.24,314.32 327.52,314.39 327.52,314.56 327.72,314.73 328.10,314.99 328.35,315.14 329.28,315.35 330.89,315.50 331.17,315.66 331.38,315.76 331.45,315.93 331.45,316.07 331.46,316.21 331.62,316.35 332.36,316.52 332.69,316.69 332.89,316.90 333.21,317.12 333.90,317.34 334.23,317.48 334.29,317.62 334.43,317.72 335.57,317.89 336.24,318.07 336.45,318.17 336.61,318.34 336.85,318.51 337.33,318.67 337.39,318.82 337.41,319.03 337.80,319.20 337.84,319.37 338.08,319.61 339.36,319.78 339.85,319.96 340.19,320.16 340.36,320.33 340.36,320.47 340.82,320.57 340.85,320.73 341.06,320.82 341.28,320.95 341.75,321.09 341.76,321.28 341.82,321.54 341.87,321.71 342.09,322.00 342.26,322.29 342.52,322.40 342.54,322.50 342.85,322.69 342.98,323.12 343.58,323.38 343.70,323.53 343.80,323.84 343.88,324.12 343.93,324.25 344.59,324.56 345.07,324.72 345.34,324.94 345.60,325.15 345.65,325.34 345.73,325.56 345.77,325.77 346.04,326.01 346.55,326.18 346.66,326.28 346.73,326.38 346.86,326.52 347.28,326.73 348.44,326.90 348.77,327.09 348.96,327.35 349.28,327.55 349.28,327.69 349.41,327.86 349.47,328.10 349.60,328.41 349.66,328.58 350.21,328.76 350.40,328.93 350.62,329.03 350.78,329.20 351.32,329.43 351.48,329.58 351.68,329.68 351.98,329.82 351.99,329.96 352.03,330.06 352.44,330.20 352.45,330.35 352.51,330.51 353.14,330.61 353.60,330.78 354.41,330.90 355.01,331.13 356.46,331.30 356.63,331.42 357.33,331.57 357.80,331.85 358.07,332.00 358.68,332.16 359.00,332.33 359.53,332.52 359.53,332.71 359.54,332.88 359.81,333.14 360.12,333.34 360.14,333.53 360.57,333.79 361.19,333.91 361.79,334.05 362.51,334.22 362.62,334.44 363.15,334.67 363.30,334.84 363.57,335.08 363.70,335.32 363.99,335.46 364.46,335.60 364.55,335.70 365.40,335.91 365.74,336.03 366.61,336.20 366.79,336.42 367.04,336.63 367.71,336.82 368.50,336.94 369.15,337.04 369.51,337.30 369.96,337.52 370.12,337.66 370.52,337.90 371.38,338.11 371.70,338.38 372.60,338.59 372.84,338.67 373.28,338.96 373.54,339.24 374.47,339.43 374.73,339.65 375.07,339.86 375.12,340.10 375.32,340.24 375.73,340.44 375.97,340.60 376.09,340.72 376.09,340.89 376.31,341.11 376.89,341.22 377.15,341.34 377.29,341.53 377.51,341.68 378.06,341.78 378.45,342.06 378.83,342.32 378.93,342.51 378.93,342.61 379.11,342.90 379.33,343.16 379.47,343.33 380.22,343.61 380.62,343.76 380.78,343.91 381.05,344.14 381.06,344.28 381.11,344.50 382.34,344.71 382.67,344.83 383.35,345.05 383.67,345.15 384.85,345.32 385.06,345.46 385.46,345.56 385.77,345.75 386.40,345.94 386.82,346.22 387.01,346.53 387.01,346.63 387.19,346.91 387.39,347.08 387.90,347.39 388.21,347.59 388.38,347.73 388.95,347.90 389.38,348.07 389.53,348.25 389.90,348.42 390.25,348.52 390.38,348.73 391.18,348.86 391.39,349.00 391.65,349.17 391.66,349.28 391.86,349.47 392.64,349.69 393.25,349.86 393.58,350.08 393.67,350.27 394.15,350.45 395.10,350.65 395.12,350.79 395.21,351.00 395.92,351.18 396.06,351.30 396.41,351.68 396.66,351.85 397.60,352.13 398.22,352.30 398.32,352.51 398.56,352.73 398.88,352.99 399.31,353.16 399.84,353.40 400.05,353.52 400.73,353.61 400.92,353.71 401.42,353.87 401.45,354.05 401.57,354.12 401.70,354.30 402.32,354.43 402.64,354.64 403.16,354.91 403.42,355.12 403.92,355.19 404.59,355.38 405.42,355.53 405.88,355.70 406.98,355.89 407.20,356.05 407.57,356.22 407.90,356.36 408.65,356.53 408.96,356.63 409.67,356.74 410.61,356.84 410.91,356.94 411.10,357.11 411.13,357.37 411.48,357.53 411.82,357.66 412.02,357.72 412.33,357.84 412.73,358.01 413.10,358.21 413.15,358.39 413.90,358.63 414.00,358.76 414.33,358.90 414.69,359.11 415.53,359.21 415.92,359.35 416.49,359.49 417.15,359.69 417.69,359.88 417.73,359.98 418.53,360.10 418.54,360.17 419.13,360.35 419.53,360.55 419.75,360.79 420.48,361.07 420.53,361.24 420.54,361.38 420.93,361.57 420.93,361.72 421.35,361.93 421.88,362.24 422.67,362.32 422.98,362.51 423.26,362.68 424.08,362.91 424.60,363.03 425.07,363.16 425.25,363.40 425.99,363.54 426.29,363.68 426.64,363.94 427.14,364.09 427.62,364.16 428.32,364.32 428.75,364.40 429.40,364.57 429.59,364.78 430.02,364.99 431.01,365.09 431.08,365.23 431.65,365.43 432.58,365.57 432.63,365.67 432.82,365.81 433.02,365.98 433.18,366.15 433.71,366.31 433.72,366.39 433.81,366.53 434.54,366.67 434.82,366.81 435.23,367.05 435.31,367.22 435.54,367.49 436.07,367.67 436.30,367.77 436.95,367.98 437.79,368.10 437.94,368.29 437.99,368.42 438.64,368.59 438.91,368.66 439.05,368.80 439.37,368.96 439.91,369.11 440.66,369.21 441.20,369.42 441.70,369.56 441.92,369.66 441.92,369.83 442.03,369.90 442.09,370.04 442.31,370.21 442.40,370.35 442.70,370.49 442.70,370.55 442.78,370.67 443.08,370.83 443.42,371.00 443.88,371.16 444.00,371.24 444.54,371.31 444.68,371.46 445.19,371.60 445.19,371.79 445.25,371.98 445.74,372.10 445.83,372.24 446.39,372.38 447.12,372.58 447.57,372.75 447.92,372.86 448.45,372.96 448.64,373.17 448.84,373.34 449.04,373.60 449.62,373.73 449.76,373.92 450.44,374.18 450.72,374.27 450.72,374.61 450.72,374.89 450.94,375.19 451.09,375.40 451.18,375.61 452.07,375.85 452.17,376.16 452.49,376.29 452.68,376.52 452.95,376.62 453.54,376.91 453.80,377.17 454.38,377.34 455.02,377.50 455.18,377.57 455.64,377.86 455.72,378.05 455.98,378.25 456.25,378.41 456.98,378.67 457.24,378.84 457.69,379.06 458.94,379.23 459.73,379.49 460.07,379.66 460.16,379.80 460.64,380.01 461.23,380.21 461.36,380.40 462.15,380.66 462.97,380.80 464.05,380.99 464.81,381.24 464.95,381.42 465.20,381.54 465.43,381.67 465.62,381.86 466.37,382.05 467.02,382.22 467.67,382.34 468.42,382.41 469.71,382.55 469.79,382.62 471.14,382.83 472.32,382.96 472.61,383.10 472.97,383.24 474.03,383.36 474.19,383.55 474.86,383.68 475.79,383.91 476.07,384.10 477.26,384.37 477.27,384.48 477.54,384.61 477.79,384.89 478.74,385.03 478.74,385.32 478.74,385.82 479.21,385.95 480.12,386.06 480.26,386.18 480.70,386.43 481.05,386.68 481.42,386.88 481.55,386.98 482.12,387.09 482.17,387.17 482.37,387.36 482.79,387.50 483.40,387.72 483.95,387.91 484.63,388.05 484.99,388.22 485.07,388.33 485.32,388.50 485.37,388.67 485.41,388.79 485.50,389.01 485.97,389.18 486.56,389.32 486.59,389.49 486.59,389.63 487.61,389.80 487.81,389.91 488.01,389.97 488.06,390.22 488.11,390.32 488.20,390.46 488.62,390.63 488.75,390.75 489.03,390.90 489.22,391.06 489.50,391.18 489.50,391.35 489.65,391.59 490.22,391.80 490.36,392.00 490.81,392.11 491.25,392.21 491.66,392.35 491.73,392.59 492.04,392.74 492.29,392.88 492.74,393.10 493.13,393.21 493.46,393.31 493.55,393.38 493.96,393.55 494.12,393.72 494.53,393.89 494.86,394.03 495.10,394.17 495.18,394.24 495.27,394.31 495.50,394.43 495.73,394.53 495.94,394.72 496.36,394.94 496.59,395.10 496.79,395.23 497.15,395.37 497.16,395.56 497.40,395.72 498.10,395.82 498.46,395.99 498.78,396.13 499.01,396.30 499.51,396.47 499.64,396.63 500.48,396.75 501.01,396.90 502.01,396.99 502.16,397.09 502.56,397.23 502.80,397.42 503.32,397.57 503.79,397.67 503.94,397.78 504.12,397.88 504.29,398.09 504.86,398.26 504.97,398.36 505.24,398.50 505.55,398.65 505.70,398.77 505.83,398.95 506.37,399.05 506.95,399.29 507.11,399.39 507.54,399.53 508.01,399.70 508.34,399.86 508.65,400.05 509.54,400.24 509.78,400.36 510.40,400.53 510.76,400.63 511.00,400.73 511.02,400.87 512.39,400.97 514.22,401.15 514.87,401.28 516.27,401.39 516.90,401.49 516.94,401.63 517.00,401.83 517.10,402.01 517.10,402.14 517.64,402.32 518.22,402.42 518.55,402.52 518.76,402.59 519.40,402.69 519.46,402.80 519.81,402.93 519.98,403.04 520.27,403.17 520.35,403.28 520.61,403.41 521.01,403.55 521.86,403.67 522.02,403.83 522.16,403.96 522.43,404.10 522.49,404.24 522.50,404.31 523.05,404.48 523.57,404.62 523.57,404.69 523.70,404.82 523.84,404.89 523.97,405.03 524.41,405.17 524.75,405.32 524.90,405.48 525.55,405.63 525.79,405.72 525.91,405.82 526.10,405.96 527.43,406.10 528.81,406.27 529.98,406.37 530.11,406.49 530.42,406.68 530.43,406.82 531.15,407.02 531.19,407.16 531.60,407.33 532.05,407.49 533.05,407.61 533.49,407.71 533.81,407.85 534.47,407.99 534.69,408.16 534.72,408.26 535.01,408.42 536.89,408.57 537.75,408.67 538.39,408.83 538.47,409.02 538.76,409.22 539.22,409.41 540.11,409.53 540.12,409.67 540.22,409.88 540.59,410.10 541.57,410.29 541.70,410.46 543.28,410.67 543.69,410.81 544.60,410.94 545.98,411.13 546.09,411.32 546.58,411.49 546.98,411.70 547.56,411.87 548.10,412.01 548.42,412.18 549.60,412.35 550.01,412.46 550.34,412.59 551.29,412.82 551.80,412.88 551.85,413.04 551.93,413.16 552.40,413.28 552.48,413.38 553.27,413.57 553.57,413.78 554.97,413.90 554.97,414.07 556.31,414.23 556.53,414.31 556.84,414.45 557.68,414.60 558.05,414.79 558.10,414.96 559.37,415.17 559.52,415.26 559.55,415.48 560.23,415.69 560.35,415.82 560.49,415.96 561.08,416.03 561.80,416.24 561.80,416.37 561.80,416.55 562.20,416.75 562.29,416.89 562.45,416.99 563.27,417.20 563.68,417.28 563.80,417.40 564.21,417.51 564.40,417.63 564.98,417.71 565.14,417.85 565.41,417.99 565.57,418.16 565.79,418.26 567.23,418.44 567.32,418.49 567.34,418.57 567.78,418.76 567.86,418.83 568.00,418.95 568.20,419.14 568.52,419.28 568.93,419.47 569.33,419.57 569.64,419.67 569.78,419.81 569.90,419.88 570.39,420.02 570.44,420.10 570.83,420.22 571.36,420.40 571.92,420.50 572.35,420.64 573.56,420.84 573.86,420.98 574.02,421.12 575.08,421.22 575.37,421.32 575.75,421.50 575.99,421.63 576.74,421.74 577.58,421.80 577.92,421.94 578.58,422.06 578.72,422.25 580.57,422.46 581.35,422.65 582.76,422.84 582.90,423.01 582.90,423.25 582.90,423.61 582.90,423.80 583.13,423.87 585.29,424.00 586.28,424.19 586.39,424.35 586.93,424.54 587.27,424.69 587.95,424.80 588.69,424.97 589.27,425.07 589.47,425.24 589.56,425.38 590.19,425.60 590.32,425.79 591.30,425.90 592.32,426.00 592.40,426.07 592.50,426.17 593.00,426.31 593.20,426.36 593.52,426.58 594.27,426.77 594.51,426.94 595.22,427.10 595.49,427.24 596.00,427.36 596.36,427.51 596.69,427.58 597.20,427.77 598.44,427.92 598.60,428.06 599.38,428.28 599.83,428.47 600.62,428.58 600.67,428.71 601.31,428.85 601.96,428.92 602.63,429.06 603.14,429.20 603.25,429.26 603.82,429.37 604.04,429.50 604.23,429.64 604.23,429.78 604.49,429.92 605.03,430.00 606.06,430.12 606.11,430.30 606.11,430.38 606.35,430.50 606.82,430.57 607.53,430.67 607.81,430.74 608.30,430.91 608.81,431.07 609.39,431.15 609.40,431.22 609.43,431.39 610.45,431.46 610.60,431.57 611.39,431.76 612.23,431.88 612.81,431.98 612.96,432.05 613.54,432.24 614.04,432.39 614.74,432.53 614.76,432.65 615.18,432.80 616.02,432.87 616.87,433.08 617.57,433.15 617.87,433.42 620.31,433.53 620.77,433.63 620.92,433.77 621.34,433.84 621.74,433.97 622.60,434.08 623.29,434.14 623.97,434.32 624.10,434.42 624.30,434.52 625.14,434.68 626.06,434.80 626.06,434.87 626.55,435.04 626.65,435.14 626.87,435.28 627.21,435.42 627.32,435.55 627.41,435.83 627.54,435.90 627.89,436.07 627.97,436.17 628.16,436.31 628.35,436.41 628.39,436.53 628.42,436.69 628.50,436.86 628.69,437.08 628.75,437.24 628.89,437.34 628.99,437.46 629.32,437.65 630.18,437.75 631.12,437.96 632.04,438.13 632.50,438.24 632.77,438.41 632.95,438.58 633.14,438.68 633.60,438.85 633.71,438.97 634.50,439.09 634.59,439.23 634.96,439.37 635.58,439.47 635.81,439.61 636.97,439.75 637.31,439.85 637.90,439.92 638.14,440.06 638.45,440.16 638.56,440.33 639.68,440.44 640.13,440.50 640.26,440.61 640.74,440.74 641.75,440.90 641.80,441.02 642.24,441.16 642.75,441.31 644.48,441.47 644.84,441.57 645.13,441.71 645.23,441.81 645.36,441.91 645.57,442.07 645.78,442.22 645.95,442.36 646.34,442.46 646.98,442.64 647.15,442.77 647.15,442.88 647.79,443.01 648.17,443.15 649.23,443.32 649.58,443.46 649.80,443.60 650.08,443.74 650.60,443.84 650.77,443.92 651.40,444.01 651.60,444.15 651.97,444.27 652.39,444.46 653.71,444.56 654.25,444.68 654.61,444.73 654.69,444.83 655.28,445.02 655.78,445.16 656.86,445.32 656.87,445.45 657.67,445.56 658.46,445.63 658.60,445.76 658.94,445.92 659.55,446.11 660.38,446.21 660.52,446.35 661.48,446.42 661.64,446.48 662.70,446.67 662.73,446.79 663.34,446.93 663.90,447.09 666.82,447.28 666.82,447.41 667.78,447.55 669.07,447.72 669.54,447.86 669.83,447.96 670.34,448.15 670.55,448.31 671.01,448.41 671.17,448.55 671.43,448.77 671.86,448.93 672.39,449.17 673.31,449.34 673.72,449.51 673.80,449.68 674.13,449.78 674.20,449.96 674.62,450.06 675.00,450.18 675.42,450.30 675.42,450.33 675.52,450.52 676.51,450.68 676.59,450.78 676.95,450.97 677.02,451.16 677.17,451.30 677.17,451.50 677.79,451.57 678.30,451.68 678.34,451.81 678.99,451.93 679.43,452.02 680.25,452.12 680.82,452.31 681.14,452.45 681.43,452.64 681.67,452.74 681.70,452.81 681.77,452.91 681.77,452.95 681.86,453.12 682.64,453.29 682.84,453.36 683.23,453.48 683.43,453.53 683.52,453.67 683.76,453.77 683.76,453.91 683.91,454.05 684.59,454.22 684.83,454.36 684.94,454.49 685.05,454.56 685.99,454.73 686.84,454.91 686.93,454.98 687.70,455.08 688.05,455.25 688.40,455.35 688.70,455.49 689.57,455.61 689.84,455.80 690.57,455.94 690.85,456.04 691.37,456.21 691.92,456.35 692.43,456.52 692.60,456.66 692.85,456.83 693.60,456.93 694.03,457.04 694.09,457.14 694.61,457.28 695.45,457.38 696.00,457.48 696.73,457.66 696.83,457.73 697.29,457.83 697.43,457.97 698.03,458.10 699.22,458.24 699.50,458.31 700.01,458.41 700.54,458.52 700.76,458.58 702.66,458.72 703.33,458.82 703.60,458.96 705.19,459.07 705.19,459.15 705.47,459.31 705.65,459.44 709.09,459.58 710.61,459.72 711.77,459.79 712.94,459.92 713.11,460.10 713.16,460.23 713.92,460.42 714.52,460.58 715.20,460.68 716.15,460.82 716.42,460.89 716.69,461.06 717.19,461.20 717.88,461.33 717.88,461.44 717.89,461.54 718.45,461.68 718.95,461.78 719.37,461.88 720.53,461.99 720.98,462.09 721.29,462.26 723.22,462.43 723.73,462.50 724.73,462.57 725.89,462.71 725.91,462.86 726.14,463.05 727.55,463.16 728.01,463.33 728.18,463.47 728.62,463.53 728.89,463.67 729.33,463.77 729.81,463.84 730.15,464.02 730.31,464.12 730.33,464.26 730.48,464.39 730.73,464.50 731.54,464.63 731.98,464.77 732.44,464.91 732.66,465.05 732.81,465.18 733.20,465.32 733.51,465.44 733.89,465.63 734.35,465.77 734.73,465.84 734.84,465.97 734.95,466.16 735.31,466.30 736.78,466.46 738.10,466.56 739.93,466.66 740.75,466.80 741.74,466.94 742.21,467.04 742.67,467.11 743.05,467.25 744.24,467.38 744.79,467.47 745.60,467.66 746.01,467.76 746.30,467.87 747.31,468.04 747.53,468.24 747.65,468.42 747.97,468.52 748.23,468.52 748.87,468.69 749.06,468.83 749.23,468.93 749.31,469.07 749.69,469.14 749.99,469.27 750.04,469.48 750.23,469.62 751.74,469.76 751.95,469.86 752.74,470.05 752.91,470.27 753.05,470.41 753.79,470.55 754.39,470.65 754.44,470.82 754.83,470.94 754.95,471.15 755.23,471.30 756.53,471.51 757.47,471.61 757.73,471.65 758.07,471.78 758.68,471.96 758.99,472.13 759.23,472.23 759.97,472.37 761.33,472.47 761.33,472.57 761.62,472.75 762.04,472.81 762.52,472.99 763.14,473.16 763.54,473.30 764.16,473.50 764.27,473.67 764.55,473.85 764.81,473.98 765.14,474.05 766.34,474.19 766.50,474.26 767.00,474.40 767.27,474.57 767.28,474.64 768.44,474.81 769.60,475.01 770.24,475.15 770.24,475.26 771.17,475.36 772.02,475.53 772.10,475.70 772.78,475.77 773.99,475.91 774.49,475.98 774.70,476.08 775.28,476.18 775.91,476.32 776.34,476.46 776.66,476.63 776.79,476.73 777.12,476.80 777.34,476.87 777.39,476.97 777.42,477.04 777.73,477.18 779.27,477.32 779.51,477.46 779.95,477.59 780.08,477.70 780.70,477.83 781.32,477.97 781.43,478.07 781.60,478.18 781.78,478.31 782.51,478.38 783.02,478.56 783.53,478.66 783.58,478.73 783.59,478.86 783.62,478.97 783.63,479.11 784.67,479.31 784.75,479.40 785.53,479.52 786.05,479.76 787.14,479.90 787.50,479.93 787.79,480.03 788.14,480.26 788.83,480.48 789.08,480.58 789.55,480.72 789.70,480.79 790.45,480.93 791.82,481.10 792.21,481.17 792.97,481.27 794.01,481.49 794.15,481.61 794.27,481.72 794.56,481.82 794.99,481.94 795.81,482.10 796.05,482.20 796.65,482.32 797.28,482.47 798.59,482.65 799.11,482.78 799.26,482.82 799.59,482.89 800.27,483.06 800.85,483.13 801.86,483.23 802.36,483.30 803.22,483.47 803.87,483.57 804.10,483.75 805.17,483.88 805.60,484.02 805.93,484.12 806.21,484.26 806.21,484.36 806.39,484.50 807.53,484.67 807.68,484.78 807.68,484.91 807.68,485.09 807.96,485.19 808.03,485.26 808.85,485.40 810.38,485.53 811.31,485.60 811.74,485.67 813.51,485.81 814.39,485.91 815.83,485.98 816.40,486.08 817.29,486.15 817.93,486.32 818.40,486.43 818.63,486.56 818.70,486.70 819.32,486.80 820.72,486.91 821.73,486.98 822.56,487.05 823.88,487.22 824.12,487.30 824.41,487.46 826.38,487.63 826.44,487.77 826.96,487.94 827.16,488.04 827.80,488.15 828.13,488.25 828.37,488.32 828.68,488.45 828.92,488.59 829.95,488.73 830.99,488.87 831.05,489.00 831.26,489.11 831.46,489.30 832.55,489.35 832.71,489.55 833.66,489.66 833.95,489.80 834.81,489.90 835.05,489.97 836.16,490.07 837.50,490.17 837.53,490.28 837.60,490.41 838.39,490.55 838.93,490.69 839.69,490.90 839.69,491.03 840.69,491.17 841.10,491.27 841.54,491.41 842.42,491.55 842.95,491.65 843.60,491.82 844.99,491.93 845.63,492.03 847.36,492.17 847.48,492.27 848.03,492.41 848.68,492.58 849.44,492.72 849.49,492.85 849.58,492.96 850.02,493.03 850.73,493.10 850.76,493.27 852.52,493.44 852.75,493.54 854.28,493.75 855.56,493.85 856.04,493.99 856.40,494.13 857.49,494.26 858.09,494.40 858.30,494.50 858.74,494.61 858.75,494.71 859.01,494.81 859.13,494.88 859.56,495.05 860.48,495.19 861.05,495.26 861.21,495.40 861.47,495.54 861.53,495.64 862.23,495.81 862.54,495.95 863.31,496.02 863.35,496.15 863.35,496.26 863.52,496.43 863.99,496.57 864.97,496.74 864.97,496.88 865.51,496.95 866.03,497.08 866.19,497.22 866.54,497.32 867.39,497.51 867.56,497.63 867.96,497.84 868.46,497.94 870.09,498.08 870.93,498.15 871.03,498.22 871.35,498.35 872.03,498.46 872.34,498.56 872.56,498.66 873.48,498.77 873.57,498.90 873.70,499.08 873.88,499.15 875.22,499.28 875.39,499.45 875.90,499.63 878.21,499.76 879.53,499.83 879.82,500.00 880.00,500.18 880.47,500.28 881.39,500.42 881.80,500.52 882.36,500.59 882.96,500.73 883.47,500.83 884.04,500.97 884.16,501.04 884.96,501.17 885.28,501.28 885.81,501.38 886.23,501.55 886.47,501.62 886.76,501.69 887.16,501.89 889.36,501.96 889.97,502.03 890.69,502.14 891.20,502.24 891.93,502.34 892.31,502.44 893.77,502.62 894.22,502.82 894.26,502.89 894.58,502.99 894.67,503.10 895.07,503.24 895.43,503.37 896.07,503.51 896.38,503.58 897.09,503.72 897.23,503.79 898.21,503.85 898.35,503.96 899.48,504.09 900.28,504.23 900.42,504.30 901.02,504.44 901.36,504.58 902.69,504.75 902.90,504.89 903.33,504.95 903.75,505.06 904.19,505.23 905.04,505.33 905.34,505.50 905.84,505.61 906.03,505.74 906.05,505.92 906.79,506.02 906.86,506.12 906.92,506.23 907.18,506.33 907.36,506.47 907.41,506.60 907.53,506.78 908.15,506.91 908.36,507.02 908.42,507.15 908.81,507.26 909.47,507.36 911.11,507.50 911.11,507.64 912.27,507.81 912.46,507.88 913.33,507.98 914.09,508.12 914.09,508.19 914.65,508.29 914.91,508.43 915.91,508.49 916.52,508.60 916.55,508.70 917.25,508.80 917.48,508.91 917.69,508.98 918.06,509.11 918.06,509.18 918.28,509.29 918.42,509.44 919.06,509.56 919.19,509.70 919.49,509.84 919.63,509.90 919.64,510.01 919.82,510.04 920.30,510.18 920.75,510.35 920.97,510.49 921.29,510.59 921.29,510.73 921.32,510.83 922.07,511.04 922.31,511.14 922.72,511.28 923.62,511.42 924.02,511.52 924.18,511.69 924.81,511.79 925.10,511.93 925.45,512.07 925.61,512.21 926.22,512.38 926.36,512.48 927.37,512.55 928.46,512.72 929.30,512.83 929.52,512.96 930.40,513.10 930.60,513.20 930.70,513.31 931.12,513.44 931.61,513.56 931.89,513.65 933.21,513.72 933.47,513.77 933.47,513.89 934.06,513.96 934.30,514.10 934.50,514.25 934.50,514.34 935.45,514.51 935.96,514.61 936.39,514.75 936.92,514.82 937.06,514.96 937.99,515.06 938.58,515.20 938.68,515.37 939.65,515.51 940.03,515.64 940.23,515.80 940.36,515.95 941.35,516.02 941.72,516.13 942.99,516.26 942.99,516.40 943.09,516.50 943.78,516.64 943.91,516.81 944.36,516.95 945.13,517.11 945.87,517.26 945.95,517.40 947.02,517.50 947.73,517.60 948.11,517.74 949.12,517.84 949.18,517.95 949.25,517.98 949.38,518.08 950.23,518.22 951.00,518.39 951.08,518.46 951.72,518.60 951.91,518.67 952.16,518.77 953.85,518.88 953.97,519.01 954.41,519.15 955.04,519.25 955.32,519.36 955.64,519.49 956.15,519.63 956.83,519.77 957.09,519.91 958.12,519.98 959.29,520.08 959.49,520.15 960.00,520.25 960.59,520.49 961.15,520.59 961.49,520.66 963.07,520.77 964.48,520.87 964.73,520.97 965.24,521.11 965.61,521.21 967.44,521.32 967.51,521.45 968.65,521.63 969.32,521.73 969.60,521.83 970.44,522.00 971.27,522.07 972.67,522.18 972.79,522.30 973.27,522.38 974.07,522.48 974.40,522.55 975.22,522.69 975.61,522.83 975.95,522.90 977.05,523.00 977.12,523.10 977.45,523.24 978.77,523.41 979.37,523.55 980.40,523.65 981.41,523.81 982.20,523.89 982.52,524.00 983.41,524.10 984.42,524.20 984.91,524.34 984.94,524.48 985.95,524.62 986.26,524.72 986.37,524.79 986.67,524.89 987.22,524.96 987.52,525.06 987.88,525.20 988.32,525.30 988.71,525.30 989.34,525.41 990.18,525.53 990.20,525.61 990.49,525.68 991.54,525.78 991.54,525.92 991.87,526.03 992.05,526.16 992.64,526.30 992.71,526.40 993.74,526.61 993.76,526.71 995.19,526.85 995.19,526.95 996.45,527.09 997.22,527.26 997.61,527.33 998.38,527.50 998.54,527.64 999.80,527.71 1000.17,527.78 1000.17,527.85 1000.40,527.88 1000.42,527.98 1001.11,528.05 1001.12,528.22 1001.12,528.33 1002.08,528.47 1002.41,528.57 1003.95,528.67 1005.05,528.81 1006.08,528.84 1006.17,528.91 1006.56,529.03 1007.43,529.19 1007.52,529.26 1008.58,529.39 1009.64,529.53 1009.84,529.63 1010.31,529.81 1010.32,529.94 1010.44,530.08 1011.01,530.15 1011.70,530.25 1011.80,530.36 1012.13,530.46 1012.95,530.58 1013.35,530.70 1013.37,530.80 1013.86,530.94 1013.99,531.04 1014.26,531.18 1014.71,531.28 1014.80,531.39 1015.34,531.52 1015.79,531.66 1016.52,531.80 1016.63,531.94 1016.84,532.04 1017.62,532.14 1018.02,532.28 1018.45,532.42 1018.76,532.52 1019.70,532.59 1020.21,532.73 1020.98,532.87 1021.24,532.93 1021.36,533.07 1022.28,533.17 1022.87,533.31 1022.91,533.38 1023.84,533.48 1024.29,533.66 1024.60,533.76 1024.74,533.86 1025.67,533.97 1025.80,534.03 1026.37,534.21 1026.66,534.38 1027.43,534.48 1027.45,534.58 1028.10,534.72 1029.90,534.86 1030.24,535.00 1030.64,535.13 1030.89,535.31 1031.49,535.37 1032.23,535.48 1033.00,535.58 1033.39,535.68 1033.80,535.79 1034.69,535.92 1035.14,536.03 1035.31,536.13 1036.25,536.23 1037.03,536.34 1037.27,536.47 1037.90,536.58 1038.38,536.75 1038.59,536.85 1038.72,536.92 1038.83,537.08 1039.57,537.20 1039.67,537.30 1039.68,537.49 1039.80,537.61 1039.89,537.71 1040.29,537.82 1040.64,537.95 1041.01,538.06 1041.34,538.16 1042.03,538.33 1042.24,538.45 1042.42,538.57 1043.31,538.67 1043.90,538.74 1043.90,538.88 1044.64,539.02 1045.06,539.12 1045.76,539.22 1046.21,539.36 1046.74,539.48 1047.45,539.57 1047.95,539.67 1048.37,539.84 1049.35,539.95 1049.45,539.98 1049.59,540.08 1049.71,540.17 1049.82,540.39 1050.21,540.60 1050.42,540.74 1050.45,540.84 1051.24,540.94 1051.51,541.08 1051.89,541.25 1051.95,541.39 1052.50,541.56 1052.63,541.63 1052.63,541.80 1053.04,541.91 1053.59,541.97 1053.71,542.11 1054.15,542.25 1054.58,542.42 1054.84,542.59 1055.07,542.70 1056.34,542.83 1056.44,542.94 1056.81,543.01 1057.46,543.11 1057.47,543.21 1057.50,543.35 1057.79,543.49 1057.79,543.62 1057.84,543.76 1058.13,543.86 1058.93,543.93 1059.58,544.11 1059.58,544.17 1059.87,544.31 1060.33,544.45 1060.55,544.55 1061.28,544.66 1061.28,544.74 1061.51,544.83 1061.96,544.98 1062.16,545.14 1062.52,545.31 1063.44,545.45 1064.07,545.55 1064.13,545.65 1064.45,545.79 1065.58,545.91 1066.41,546.03 1066.41,546.13 1067.70,546.24 1067.96,546.37 1068.12,546.48 1068.29,546.65 1068.50,546.75 1068.66,546.86 1068.98,546.96 1069.65,547.06 1070.07,547.10 1070.38,547.13 1070.56,547.23 1071.35,547.37 1071.82,547.47 1072.67,547.58 1072.92,547.70 1073.52,547.85 1074.04,547.99 1074.57,548.09 1074.63,548.20 1075.13,548.33 1075.34,548.44 1075.68,548.61 1076.08,548.75 1076.26,548.88 1076.95,548.95 1077.08,549.02 1077.83,549.12 1078.52,549.18 1079.31,549.26 1080.10,549.36 1080.55,549.47 1080.70,549.57 1081.16,549.74 1081.25,549.85 1081.55,549.98 1081.65,550.12 1081.99,550.26 1082.07,550.33 1082.52,550.43 1082.72,550.57 1083.03,550.71 1083.39,550.84 1083.56,550.98 1083.67,551.08 1083.93,551.26 1084.06,551.36 1084.13,551.46 1084.39,551.56 1084.51,551.70 1085.59,551.84 1085.81,551.98 1086.35,552.08 1087.15,552.18 1087.30,552.29 1087.44,552.49 1088.07,552.63 1088.33,552.75 1088.43,552.84 1089.85,552.97 1089.88,553.11 1090.05,553.21 1090.70,553.35 1090.72,553.52 1090.73,553.70 1090.92,553.80 1091.51,553.94 1092.11,554.07 1092.15,554.14 1092.26,554.25 1092.67,554.38 1092.70,554.45 1094.08,554.56 1094.37,554.66 1094.43,554.76 1094.86,554.83 1095.45,554.93 1095.68,555.04 1095.74,555.17 1096.20,555.31 1097.15,555.41 1097.15,555.48 1097.23,555.62 1097.68,555.76 1097.75,555.90 1098.16,556.00 1098.42,556.10 1098.47,556.24 1098.53,556.38 1099.01,556.51 1099.12,556.58 1099.16,556.69 1099.65,556.82 1100.14,556.89 1100.14,556.96 1100.32,557.13 1100.51,557.20 1101.27,557.30 1101.51,557.48 1101.70,557.58 1101.82,557.72 1101.92,557.82 1103.00,557.92 1103.17,558.03 1103.17,558.20 1103.86,558.34 1104.21,558.44 1104.73,558.61 1104.75,558.75 1104.83,558.85 1104.88,558.95 1104.91,559.06 1105.29,559.16 1105.67,559.26 1105.78,559.33 1105.97,559.50 1106.62,559.64 1106.94,559.75 1107.76,559.88 1108.02,559.99 1108.09,560.12 1108.59,560.26 1108.84,560.33 1108.84,560.47 1108.84,560.55 1109.14,560.67 1109.44,560.74 1109.49,560.85 1110.03,561.02 1110.10,561.09 1110.24,561.19 1110.57,561.33 1110.76,561.46 1110.84,561.57 1111.16,561.67 1111.63,561.81 1111.96,561.91 1112.18,562.01 1112.50,562.13 1113.08,562.29 1113.23,562.39 1113.63,562.53 1113.88,562.63 1114.64,562.74 1115.32,562.84 1115.37,563.01 1115.37,563.15 1115.84,563.29 1115.94,563.35 1116.08,563.46 1116.28,563.60 1116.74,563.73 1117.51,563.87 1117.86,563.97 1117.93,564.16 1118.17,564.35 1118.20,564.42 1119.02,564.52 1119.10,564.63 1119.37,564.73 1119.58,564.83 1119.79,564.97 1119.95,565.04 1120.05,565.18 1120.17,565.25 1120.50,565.38 1120.51,565.45 1120.84,565.59 1121.00,565.69 1121.05,565.80 1121.63,565.90 1122.27,566.04 1122.27,566.14 1122.27,566.24 1122.32,566.38 1122.64,566.55 1123.01,566.69 1123.60,566.79 1123.96,566.93 1124.52,567.03 1125.14,567.14 1125.64,567.31 1125.77,567.34 1125.97,567.46 1126.09,567.62 1126.18,567.72 1126.42,567.89 1126.79,568.01 1126.81,568.13 1127.11,568.30 1127.11,568.44 1127.11,568.61 1127.14,568.75 1127.42,568.89 1127.90,568.99 1128.11,569.13 1128.70,569.30 1129.22,569.44 1129.38,569.54 1129.81,569.70 1129.89,569.82 1130.04,569.95 1130.39,570.13 1130.52,570.23 1130.81,570.37 1131.00,570.44 1131.49,570.59 1131.72,570.71 1132.59,570.81 1132.87,570.95 1133.65,571.12 1133.85,571.23 1134.06,571.40 1134.75,571.47 1134.97,571.60 1135.79,571.78 1135.79,571.84 1136.23,571.91 1136.23,572.05 1136.24,572.22 1136.46,572.36 1136.46,572.46 1136.52,572.77 1136.52,573.12 1136.52,573.32 1136.60,573.62 1136.62,573.70 1136.66,573.87 1136.82,574.01 1137.01,574.15 1137.18,574.22 1137.18,574.42 1137.19,574.61 1137.40,574.77 1137.58,574.94 1137.70,575.08 1137.71,575.18 1137.74,575.35 1137.74,575.54 1137.98,575.73 1138.42,575.94 1138.67,576.11 1138.72,576.23 1138.77,576.35 1138.95,576.49 1139.02,576.74 1139.08,576.90 1139.20,577.04 1139.44,577.21 1139.44,577.34 1139.57,577.48 1139.57,577.64 1139.67,577.83 1139.91,578.00 1140.11,578.14 1140.24,578.24 1140.44,578.41 1140.72,578.51 1140.73,578.63 1140.79,578.72 1141.10,578.86 1141.10,579.03 1141.10,579.20 1141.37,579.34 1141.59,579.48 1142.01,579.61 1142.44,579.75 1142.47,579.89 1142.47,580.04 1142.56,580.13 1142.57,580.23 1142.62,580.40 1142.92,580.54 1142.95,580.64 1143.13,580.83 1143.23,581.02 1143.63,581.16 1143.85,581.30 1143.88,581.44 1143.88,581.57 1144.10,581.88 1144.56,581.99 1144.90,582.09 1145.21,582.23 1145.68,582.36 1145.86,582.50 1145.88,582.57 1146.43,582.67 1146.49,582.81 1146.68,582.91 1147.05,583.08 1147.18,583.22 1147.55,583.33 1147.97,583.50 1147.97,583.86 1147.97,584.05 1147.98,584.15 1148.26,584.32 1148.87,584.49 1148.89,584.60 1148.90,584.70 1148.93,584.80 1149.31,584.94 1149.34,585.13 1149.42,585.30 1149.54,585.42 1149.61,585.63 1149.72,585.78 1149.74,585.94 1149.78,586.04 1150.27,586.23 1150.27,586.76 1150.27,587.42 1150.27,587.98 1150.29,588.21 1150.32,588.28 1150.45,588.43 1150.53,588.55 1150.55,588.62 1150.74,588.74 1150.95,588.86 1151.04,589.00 1151.14,589.10 1151.22,589.27 1151.24,589.38 1151.57,589.51 1151.70,589.68 1151.82,589.82 1152.14,589.93 1152.74,590.01 1153.02,590.10 1153.22,590.20 1153.63,590.30 1153.93,590.44 1153.93,590.61 1153.97,590.75 1154.19,590.89 1154.29,590.96 1154.36,591.06 1155.03,591.20 1155.03,591.37 1155.03,591.47 1155.13,591.64 1155.32,591.75 1155.55,591.88 1155.72,592.02 1155.95,592.13 1156.31,592.30 1156.43,592.43 1156.61,592.61 1156.64,592.68 1156.83,592.74 1156.90,592.92 1156.95,592.98 1157.31,593.09 1157.89,593.19 1158.10,593.29 1158.38,593.47 1158.62,593.64 1158.82,593.78 1158.83,593.81 1158.94,593.91 1159.24,594.05 1159.31,594.12 1159.32,594.19 1159.74,594.33 1160.31,594.46 1160.41,594.53 1160.55,594.63 1160.63,594.74 1160.89,594.88 1161.26,595.03 1161.26,595.12 1161.29,595.25 1161.40,595.32 1161.53,595.43 1161.66,595.49 1161.71,595.60 1161.80,595.70 1161.86,595.84 1162.06,595.94 1162.32,596.08 1162.46,596.18 1162.72,596.25 1162.81,596.39 1162.81,596.46 1162.98,596.59 1163.14,596.70 1163.44,596.89 1163.51,597.25 1163.54,597.42 1163.59,597.57 1163.79,597.76 1163.85,597.93 1163.87,598.14 1163.90,598.26 1163.95,598.42 1163.96,598.59 1163.98,598.76 1163.98,598.90 1164.00,598.97" />
<polyline fill="none" stroke="#d62728" stroke-width="2.4" points="92.00,111.03 92.00,111.15 92.21,111.74 92.37,112.22 92.48,112.48 92.48,112.72 92.55,113.06 93.60,113.39 93.84,113.73 93.89,114.11 93.90,114.30 93.90,114.68 93.94,115.06 94.02,115.23 94.43,115.54 94.43,115.81 96.12,116.02 96.84,116.19 97.47,116.40 97.48,116.52 97.74,116.64 98.39,116.69 98.40,116.93 98.41,117.17 99.75,117.34 100.12,117.46 100.12,117.48 100.12,117.48 100.21,117.55 100.21,117.57 100.96,117.70 101.64,117.91 101.69,118.08 102.01,118.15 102.09,118.29 102.11,118.42 102.38,118.46 102.42,118.53 102.43,118.56 102.44,118.60 105.56,118.65 106.82,118.70 107.27,118.89 109.23,119.04 109.62,119.11 109.62,119.13 109.62,119.18 109.62,119.20 109.62,119.22 109.66,119.25 109.67,119.32 109.74,119.42 109.89,119.46 110.19,119.46 110.19,119.49 113.32,119.59 115.50,119.73 115.51,119.75 116.41,119.78 118.60,119.87 118.61,119.95 119.89,120.02 119.90,120.09 119.93,120.23 119.95,120.33 122.13,120.40 122.72,120.49 122.72,120.56 123.15,120.66 123.27,120.76 123.36,120.90 124.49,121.00 124.49,121.04 128.88,121.11 129.02,121.14 129.05,121.24 129.10,121.29 129.10,121.42 129.72,121.52 129.96,121.59 130.00,121.71 130.46,121.76 130.61,121.84 131.60,121.95 132.84,122.05 133.12,122.10 133.12,122.14 133.49,122.17 133.77,122.27 133.85,122.31 134.83,122.31 135.23,122.34 136.07,122.38 136.07,122.38 136.07,122.41 136.07,122.45 136.07,122.46 136.07,122.52 136.58,122.53 136.90,122.57 137.37,122.58 137.38,122.65 137.58,122.72 138.38,122.76 138.38,122.82 138.38,122.82 138.38,122.86 138.38,122.89 138.38,122.89 138.39,122.86 138.39,122.93 138.39,122.96 138.40,123.03 138.88,123.03 138.88,123.10 138.89,123.19 138.93,123.29 138.93,123.43 139.07,123.49 139.15,123.53 140.05,123.58 140.19,123.67 140.40,123.74 141.32,123.77 141.32,123.82 141.62,123.79 141.66,123.89 145.86,123.89 145.86,123.89 146.09,123.99 146.40,124.03 149.29,124.03 149.29,124.10 149.33,124.13 149.80,124.22 149.81,124.29 149.95,124.39 149.95,124.41 149.97,124.44 150.09,124.53 151.03,124.56 151.07,124.66 151.07,124.72 151.76,124.75 152.14,124.82 153.07,124.85 153.45,124.99 153.47,125.13 155.08,125.23 155.42,125.30 156.05,125.33 156.18,125.37 156.29,125.44 156.29,125.42 156.29,125.45 157.39,125.49 158.01,125.54 158.02,125.64 158.06,125.78 158.21,125.83 159.10,125.87 159.11,125.88 159.61,125.92 159.86,125.95 160.75,125.95 160.94,126.02 162.19,126.06 162.22,126.09 162.22,126.12 162.22,126.12 163.15,126.19 163.67,126.24 163.67,126.35 163.76,126.42 164.17,126.45 164.98,126.50 165.08,126.57 165.42,126.62 165.42,126.69 166.09,126.76 166.09,126.74 166.48,126.78 166.49,126.81 166.49,126.85 166.93,126.95 169.18,126.98 169.63,127.09 170.16,127.16 170.99,127.19 173.29,127.29 173.46,127.33 175.51,127.41 175.57,127.52 175.78,127.64 176.47,127.67 176.49,127.74 177.52,127.84 177.52,127.86 178.60,127.88 178.60,127.91 180.53,128.05 180.57,128.19 183.24,128.26 183.91,128.32 183.98,128.39 184.46,128.53 184.82,128.56 184.82,128.60 184.82,128.63 185.86,128.67 186.80,128.70 186.84,128.72 186.84,128.77 186.99,128.84 187.24,128.86 187.51,128.89 188.43,128.96 188.43,128.99 188.43,129.01 188.69,129.05 189.16,129.08 189.38,129.15 189.47,129.18 190.02,129.29 190.60,129.36 190.96,129.36 191.32,129.42 191.46,129.49 192.74,129.53 194.61,129.58 194.63,129.68 194.64,129.79 194.70,129.89 196.52,129.99 197.58,130.08 198.71,130.09 198.80,130.16 198.80,130.21 199.40,130.25 199.40,130.25 199.40,130.28 199.92,130.32 199.92,130.32 199.92,130.35 200.23,130.46 200.80,130.49 201.10,130.52 201.21,130.58 201.49,130.68 201.53,130.73 201.78,130.85 203.94,130.92 204.79,131.02 204.79,131.04 204.81,131.07 205.09,131.13 205.09,131.14 206.26,131.18 206.87,131.25 207.75,131.31 207.96,131.38 208.49,131.45 208.58,131.49 208.59,131.52 208.81,131.59 209.46,131.62 209.92,131.69 209.96,131.78 210.61,131.86 210.61,131.93 210.80,131.97 211.49,131.99 211.49,132.00 211.49,132.07 211.49,132.14 211.49,132.17 211.49,132.24 211.54,132.31 211.78,132.38 211.81,132.48 212.19,132.52 212.19,132.59 212.28,132.66 212.56,132.72 212.59,132.78 212.60,132.84 212.60,132.95 213.15,133.02 213.16,133.05 213.16,133.09 213.26,133.12 213.46,133.19 213.50,133.29 213.52,133.38 213.53,133.41 213.54,133.48 213.80,133.55 214.08,133.58 214.08,133.62 214.08,133.65 214.37,133.69 215.24,133.76 215.28,133.82 215.39,133.86 215.40,133.91 215.52,133.94 215.57,133.96 215.57,134.05 215.66,134.10 215.74,134.17 215.74,134.24 215.80,134.31 215.80,134.34 215.81,134.37 215.93,134.41 216.14,134.41 216.16,134.44 216.82,134.51 216.84,134.58 216.89,134.65 217.63,134.68 217.63,134.72 217.86,134.75 217.86,134.79 217.88,134.86 217.89,134.92 217.90,134.98 218.59,135.03 218.70,135.04 218.71,135.08 218.71,135.11 218.95,135.15 218.95,135.16 219.62,135.13 219.62,135.16 219.66,135.23 219.91,135.27 219.94,135.30 219.95,135.34 221.25,135.44 221.28,135.58 221.56,135.61 221.57,135.68 221.61,135.75 222.54,135.73 222.54,135.78 223.46,135.83 223.60,135.87 223.94,135.90 224.02,135.96 225.02,136.01 225.02,135.99 225.02,136.02 225.50,136.02 225.50,136.06 225.50,136.13 225.52,136.16 225.53,136.20 225.88,136.26 225.96,136.37 226.27,136.40 226.30,136.47 226.30,136.51 226.92,136.56 227.46,136.63 227.66,136.66 227.95,136.69 228.79,136.69 228.83,136.73 229.01,136.73 229.02,136.75 229.46,136.81 229.49,136.92 229.88,136.95 230.59,136.99 230.60,137.02 230.69,137.06 230.74,137.12 231.15,137.16 231.77,137.18 231.78,137.21 232.58,137.26 233.31,137.35 233.32,137.45 233.35,137.50 233.71,137.55 233.84,137.62 233.84,137.62 234.74,137.67 234.74,137.71 234.79,137.78 234.83,137.85 234.84,137.91 234.84,137.98 234.89,138.05 234.99,138.12 235.15,138.16 235.15,138.16 235.40,138.21 236.13,138.21 236.55,138.26 236.83,138.31 237.26,138.34 237.38,138.38 237.48,138.43 238.14,138.50 238.52,138.57 238.55,138.60 238.59,138.64 238.91,138.67 239.19,138.71 239.27,138.71 239.27,138.74 239.27,138.81 239.45,138.91 239.47,139.01 239.48,139.12 239.48,139.17 239.53,139.24 239.90,139.24 239.93,139.27 239.94,139.32 240.52,139.32 240.55,139.39 241.27,139.43 241.30,139.48 241.30,139.46 241.48,139.50 242.02,139.53 242.02,139.60 242.04,139.67 242.42,139.77 242.45,139.87 242.87,139.91 243.15,139.94 243.15,139.98 243.15,139.99 243.15,140.03 243.38,140.08 243.54,140.17 244.01,140.25 244.52,140.30 244.68,140.36 244.70,140.44 244.73,140.54 244.73,140.60 245.55,140.66 245.96,140.77 246.01,140.87 246.95,141.01 246.97,141.04 247.54,141.11 247.71,141.25 247.75,141.28 248.46,141.32 248.48,141.37 248.56,141.47 248.60,141.58 248.67,141.61 249.12,141.71 249.48,141.83 249.48,141.88 249.48,141.95 252.34,142.02 252.34,142.04 253.03,142.14 253.07,142.18 253.16,142.25 253.44,142.28 253.51,142.38 253.94,142.52 254.28,142.55 255.15,142.69 255.54,142.69 256.27,142.71 256.34,142.76 256.63,142.85 257.71,142.92 257.88,142.98 258.14,143.04 258.89,143.09 258.89,143.12 259.18,143.21 259.18,143.28 259.18,143.35 259.18,143.45 259.43,143.55 259.43,143.65 259.45,143.76 259.68,143.79 259.77,143.83 260.79,143.93 260.96,143.96 261.36,144.02 261.37,144.08 262.55,144.15 263.15,144.20 263.37,144.27 263.38,144.34 263.38,144.41 264.15,144.50 264.43,144.58 264.45,144.62 264.46,144.69 266.28,144.75 266.29,144.79 266.37,144.79 266.47,144.79 267.32,144.79 267.42,144.82 268.47,144.86 268.47,144.86 268.75,144.88 269.29,144.96 269.39,145.05 269.62,145.12 269.62,145.12 269.64,145.15 270.03,145.20 270.43,145.24 271.63,145.29 271.63,145.30 271.92,145.37 272.04,145.48 272.05,145.55 272.21,145.58 272.37,145.61 272.37,145.68 272.37,145.79 273.60,145.85 273.60,145.87 273.60,145.89 273.61,145.99 273.83,146.06 273.93,146.13 275.60,146.18 276.47,146.28 276.86,146.35 277.56,146.47 277.58,146.59 277.59,146.65 279.79,146.65 279.86,146.75 280.76,146.82 281.16,146.92 281.16,147.02 281.18,147.13 281.41,147.20 281.41,147.26 281.59,147.30 281.60,147.38 282.00,147.42 282.08,147.47 283.19,147.50 283.20,147.57 284.13,147.63 286.12,147.73 286.17,147.83 286.21,147.93 286.22,147.95 286.29,148.05 286.58,148.09 287.35,148.16 287.35,148.26 287.35,148.33 289.38,148.36 289.90,148.40 289.90,148.43 289.91,148.47 290.29,148.52 291.33,148.62 293.76,148.69 297.91,148.69 299.49,148.69 299.50,148.72 299.76,148.78 300.23,148.83 300.28,148.86 300.29,148.91 300.90,148.95 300.90,149.05 301.10,149.09 301.10,149.15 303.33,149.26 303.53,149.33 303.75,149.43 304.06,149.46 304.06,149.50 304.47,149.55 305.88,149.58 305.88,149.62 306.54,149.70 306.68,149.82 306.68,149.93 307.24,150.00 307.30,150.03 307.32,150.08 307.36,150.12 307.98,150.22 308.64,150.36 308.66,150.50 309.64,150.56 309.98,150.60 309.98,150.67 310.03,150.77 310.05,150.87 310.65,150.89 310.65,150.94 311.34,150.99 312.21,151.08 312.29,151.17 313.12,151.27 313.90,151.35 314.01,151.44 314.02,151.46 314.34,151.54 314.34,151.56 314.34,151.60 314.86,151.63 314.98,151.66 314.98,151.70 314.98,151.73 314.99,151.73 315.92,151.87 316.20,151.94 316.23,151.97 317.21,152.06 317.74,152.15 317.75,152.18 318.04,152.23 318.49,152.25 318.83,152.32 319.08,152.35 319.50,152.39 319.52,152.44 319.53,152.49 319.74,152.52 319.74,152.49 319.74,152.56 319.75,152.63 320.03,152.70 320.73,152.80 320.98,152.90 321.05,152.94 323.21,152.99 323.21,153.00 324.72,153.02 324.81,153.02 324.81,153.06 324.82,153.07 324.82,153.12 324.82,153.16 324.94,153.25 324.95,153.28 325.45,153.38 325.71,153.42 325.78,153.45 325.81,153.52 325.86,153.59 327.72,153.66 329.13,153.73 329.33,153.76 330.35,153.80 331.45,153.83 331.45,153.88 331.67,153.93 332.35,154.02 332.69,154.09 333.27,154.10 333.98,154.19 333.99,154.29 334.29,154.36 334.29,154.35 334.45,154.45 334.89,154.55 335.06,154.69 336.07,154.76 337.25,154.83 337.25,154.76 337.39,154.86 337.39,154.89 337.80,154.93 337.80,154.96 338.04,155.02 338.32,155.03 338.36,155.10 339.20,155.17 339.30,155.22 339.37,155.26 339.38,155.31 339.52,155.38 339.52,155.38 339.52,155.41 339.56,155.51 339.61,155.62 339.63,155.72 339.69,155.82 339.70,155.82 339.72,155.93 339.76,155.99 339.78,156.06 339.78,156.10 339.85,156.15 339.86,156.22 340.88,156.30 341.70,156.36 341.82,156.44 342.26,156.54 342.48,156.60 342.52,156.63 342.52,156.61 342.80,156.72 343.01,156.85 343.06,157.03 343.09,157.20 343.24,157.30 343.83,157.44 343.87,157.58 343.88,157.71 344.24,157.89 344.39,157.95 345.00,158.07 345.34,158.18 345.57,158.28 345.57,158.35 345.60,158.42 347.10,158.49 347.10,158.59 347.11,158.66 347.11,158.71 347.85,158.74 349.12,158.85 349.22,158.92 349.28,158.95 349.41,158.99 349.47,159.09 349.53,159.19 349.53,159.29 349.70,159.36 349.70,159.40 350.17,159.47 350.31,159.48 351.58,159.55 351.71,159.64 351.72,159.69 351.99,159.69 351.99,159.72 352.44,159.72 352.44,159.71 352.44,159.71 352.45,159.74 352.45,159.78 352.45,159.78 352.45,159.84 352.49,159.91 352.88,159.91 353.22,159.98 354.48,160.05 354.57,160.07 354.72,160.14 354.95,160.22 354.97,160.29 356.21,160.38 356.52,160.46 356.75,160.55 356.79,160.60 357.80,160.67 357.81,160.70 359.31,160.77 359.31,160.84 359.53,160.91 359.53,160.98 359.53,161.01 359.91,161.15 361.19,161.22 361.80,161.25 362.76,161.36 362.97,161.41 363.30,161.48 364.46,161.48 365.44,161.53 365.48,161.56 365.94,161.62 365.97,161.65 366.33,161.70 366.90,161.77 366.90,161.80 367.13,161.87 367.22,161.94 368.04,161.98 370.37,162.04 370.38,162.11 370.39,162.22 372.01,162.25 372.02,162.32 372.02,162.35 373.49,162.41 373.53,162.47 373.58,162.58 374.09,162.61 374.13,162.71 374.16,162.82 374.18,162.92 374.29,163.02 374.32,163.09 374.33,163.14 374.40,163.21 374.81,163.32 374.85,163.42 374.88,163.52 374.89,163.63 374.99,163.73 375.05,163.83 375.07,163.90 375.07,163.92 376.08,163.99 376.09,164.06 376.51,164.09 377.52,164.14 377.52,164.18 378.66,164.26 379.49,164.33 379.85,164.47 380.27,164.50 380.27,164.52 380.75,164.55 380.77,164.59 380.77,164.66 380.77,164.69 381.06,164.76 381.06,164.83 381.06,164.86 381.06,164.93 382.66,164.97 382.70,165.04 383.55,165.09 383.70,165.12 383.71,165.16 384.08,165.22 384.14,165.31 384.52,165.38 384.91,165.43 385.28,165.46 385.28,165.48 385.37,165.55 385.43,165.62 385.56,165.69 387.25,165.83 387.76,165.89 387.80,165.93 388.16,165.96 388.20,166.03 388.20,166.07 388.32,166.15 388.42,166.26 388.74,166.31 388.85,166.39 388.95,166.48 389.37,166.55 389.53,166.63 389.90,166.70 389.90,166.74 389.90,166.75 390.33,166.82 390.61,166.89 390.70,166.99 390.98,167.03 391.24,167.13 391.65,167.20 391.66,167.27 393.03,167.34 397.20,167.42 398.30,167.54 398.35,167.63 398.50,167.72 398.59,167.80 399.21,167.91 399.21,167.97 399.24,168.08 399.84,168.16 400.81,168.20 400.81,168.20 401.22,168.27 401.30,168.34 402.32,168.37 402.73,168.47 402.78,168.58 402.92,168.68 402.95,168.78 403.55,168.82 403.55,168.85 403.89,168.88 404.35,168.95 404.44,169.02 404.55,169.07 405.70,169.16 405.72,169.23 406.69,169.26 406.69,169.31 406.73,169.42 406.73,169.43 406.74,169.50 407.20,169.54 407.59,169.61 407.60,169.68 407.90,169.71 408.89,169.78 408.92,169.85 408.96,169.88 409.31,169.93 409.48,169.97 409.65,170.04 409.78,170.11 409.85,170.16 410.47,170.23 410.88,170.28 410.89,170.31 411.55,170.36 411.55,170.40 411.81,170.43 411.82,170.47 412.02,170.47 412.36,170.53 412.41,170.57 412.41,170.60 412.64,170.64 412.64,170.67 412.65,170.71 412.98,170.74 412.99,170.76 413.01,170.86 413.03,170.96 413.30,171.07 413.38,171.15 413.78,171.22 413.79,171.29 413.79,171.34 413.81,171.33 413.83,171.43 413.95,171.50 413.99,171.57 414.06,171.63 414.18,171.67 414.19,171.70 414.50,171.81 414.68,171.84 415.14,171.91 415.16,171.94 415.16,171.98 415.82,172.00 415.82,172.03 416.41,172.03 416.41,172.08 417.27,172.12 417.69,172.20 418.54,172.24 418.54,172.25 418.71,172.36 418.72,172.46 419.07,172.53 419.11,172.63 419.13,172.67 419.13,172.67 419.13,172.70 419.64,172.80 420.49,172.94 421.08,172.96 421.09,173.01 421.09,173.03 422.87,173.08 422.91,173.13 423.79,173.18 427.62,173.23 427.67,173.28 428.31,173.35 428.31,173.39 430.98,173.42 431.27,173.49 432.47,173.49 433.02,173.56 433.27,173.63 433.72,173.66 434.30,173.73 435.18,173.77 435.24,173.90 435.31,173.96 435.34,174.06 437.18,174.14 437.43,174.21 437.94,174.28 437.99,174.35 437.99,174.37 438.86,174.42 438.91,174.49 438.91,174.52 439.24,174.59 439.29,174.59 439.29,174.59 439.29,174.63 439.49,174.69 439.91,174.73 440.02,174.80 440.91,174.87 441.17,174.90 441.57,174.92 441.58,174.95 441.62,175.00 441.64,175.07 441.88,175.09 442.09,175.14 442.70,175.16 442.78,175.23 442.78,175.28 442.78,175.31 443.37,175.35 443.37,175.38 443.58,175.48 443.60,175.55 443.60,175.66 443.65,175.76 443.78,175.83 443.80,175.90 444.00,175.90 444.54,175.91 444.81,175.95 445.00,176.03 445.19,176.12 446.84,176.21 447.78,176.26 448.45,176.28 449.22,176.36 449.47,176.41 449.48,176.45 449.93,176.52 450.34,176.55 450.34,176.55 450.72,176.58 450.72,176.69 450.72,176.83 451.04,176.89 451.15,176.96 451.27,177.07 451.30,177.10 451.30,177.17 451.40,177.22 451.42,177.22 451.70,177.24 453.38,177.31 454.17,177.39 454.18,177.50 454.26,177.62 454.28,177.65 454.39,177.72 455.30,177.82 455.71,177.93 457.35,178.03 459.16,178.10 459.24,178.10 459.25,178.20 459.28,178.30 459.31,178.34 459.83,178.42 460.24,178.49 460.68,178.54 461.21,178.61 461.24,178.68 461.33,178.75 461.36,178.80 462.52,178.89 462.97,178.96 462.97,178.96 463.28,179.03 464.52,179.16 464.58,179.23 465.04,179.27 469.37,179.30 469.37,179.30 469.71,179.30 471.19,179.33 473.87,179.37 476.64,179.44 476.69,179.51 478.74,179.52 478.74,179.63 482.37,179.71 482.40,179.78 484.00,179.83 485.77,179.88 489.03,179.95 489.03,179.99 489.62,180.09 491.67,180.13 492.62,180.19 492.64,180.26 493.13,180.30 493.41,180.40 493.44,180.54 494.92,180.57 494.93,180.59 495.10,180.62 495.27,180.62 495.62,180.66 497.84,180.66 500.80,180.71 501.87,180.76 502.29,180.80 503.79,180.88 503.79,180.90 503.79,180.88 503.82,180.95 503.94,180.98 503.97,181.02 507.11,181.05 507.11,181.09 511.16,181.12 514.22,181.16 516.46,181.19 516.48,181.23 518.55,181.28 518.55,181.33 519.64,181.40 519.78,181.41 520.35,181.47 520.35,181.52 520.75,181.57 522.43,181.59 522.43,181.62 522.43,181.64 522.43,181.64 522.47,181.67 522.91,181.74 522.91,181.81 523.84,181.84 524.25,181.88 526.05,181.88 526.15,181.95 526.72,181.98 530.06,182.03 530.57,182.10 530.64,182.17 531.15,182.26 531.16,182.31 531.60,182.36 533.32,182.41 533.37,182.45 533.40,182.48 533.42,182.50 533.77,182.57 533.81,182.60 533.86,182.67 533.87,182.70 534.50,182.70 534.72,182.74 537.07,182.84 538.39,182.84 538.85,182.89 540.23,182.94 542.61,183.01 542.75,183.08 543.73,183.13 544.34,183.18 544.40,183.24 545.80,183.30 546.30,183.39 546.69,183.39 546.69,183.42 549.52,183.46 550.34,183.49 552.90,183.53 556.43,183.56 556.43,183.63 556.43,183.67 556.43,183.70 556.84,183.73 556.84,183.75 557.06,183.82 557.28,183.87 560.21,183.94 560.25,184.01 560.67,184.08 562.18,184.10 562.30,184.13 563.04,184.18 563.04,184.22 563.18,184.28 563.51,184.35 563.68,184.39 563.68,184.39 563.80,184.42 563.80,184.42 563.80,184.42 563.80,184.46 563.80,184.49 564.54,184.52 564.98,184.54 564.98,184.56 565.32,184.61 566.25,184.63 567.39,184.70 567.39,184.77 567.49,184.83 567.82,184.90 567.86,184.94 568.04,185.04 568.23,185.14 569.05,185.18 569.33,185.18 569.69,185.21 569.84,185.25 570.44,185.28 570.44,185.35 570.44,185.38 570.82,185.40 571.33,185.40 571.73,185.42 571.86,185.47 572.37,185.52 572.39,185.56 572.58,185.62 572.59,185.75 572.60,185.85 572.60,185.90 572.61,186.00 572.62,186.04 572.64,186.14 576.16,186.17 576.17,186.17 578.69,186.21 579.66,186.24 580.07,186.28 583.13,186.28 585.27,186.31 585.82,186.38 586.05,186.43 588.46,186.47 589.25,186.47 589.27,186.50 591.58,186.52 591.68,186.54 591.68,186.54 591.68,186.52 592.93,186.55 594.27,186.62 595.79,186.66 596.67,186.66 596.69,186.66 596.80,186.69 596.80,186.69 596.80,186.66 596.80,186.66 598.44,186.67 598.58,186.69 599.83,186.72 600.67,186.74 601.16,186.79 602.63,186.86 603.27,186.91 603.40,186.97 604.23,187.02 604.23,187.03 604.23,187.07 604.23,187.10 604.23,187.10 606.11,187.17 606.58,187.21 607.26,187.27 607.52,187.31 611.61,187.31 612.52,187.31 612.96,187.33 613.35,187.34 613.56,187.41 614.76,187.46 614.76,187.50 616.02,187.50 616.06,187.52 616.07,187.55 618.07,187.57 618.09,187.58 618.33,187.69 619.75,187.69 619.76,187.72 620.01,187.76 620.20,187.76 620.44,187.76 620.78,187.79 620.78,187.79 620.78,187.82 620.79,187.86 620.87,187.93 621.05,187.96 621.07,188.03 623.97,188.08 624.10,188.13 625.08,188.19 625.08,188.17 625.08,188.20 625.08,188.20 625.17,188.27 625.26,188.37 625.46,188.41 626.11,188.41 626.21,188.48 627.21,188.51 627.52,188.62 628.35,188.65 628.43,188.68 628.47,188.75 628.89,188.82 628.99,188.86 628.99,188.91 631.44,189.01 631.46,189.08 631.54,189.18 632.67,189.27 632.68,189.32 632.68,189.34 632.95,189.37 632.95,189.41 633.02,189.41 633.47,189.44 633.71,189.51 634.47,189.54 634.66,189.58 634.66,189.58 634.66,189.61 634.66,189.63 635.57,189.63 635.58,189.68 636.93,189.70 636.97,189.70 638.28,189.75 638.43,189.78 639.64,189.82 639.66,189.84 639.66,189.85 640.26,189.89 641.51,189.92 641.53,189.92 641.75,189.99 642.02,190.09 642.27,190.09 642.37,190.13 642.68,190.16 643.74,190.18 644.75,190.21 644.84,190.28 645.13,190.30 645.23,190.32 648.68,190.37 648.83,190.39 649.23,190.44 649.80,190.47 649.84,190.47 649.89,190.51 650.19,190.54 650.60,190.54 650.65,190.61 650.77,190.68 651.59,190.71 652.78,190.75 652.80,190.78 654.69,190.85 656.68,190.87 657.00,190.90 658.60,190.90 658.60,190.90 659.55,190.94 660.31,190.97 661.68,191.02 663.49,191.06 665.58,191.12 670.75,191.18 670.75,191.19 670.86,191.23 671.01,191.30 671.01,191.33 671.01,191.37 671.01,191.37 671.12,191.40 671.41,191.40 671.86,191.43 671.90,191.49 672.10,191.55 673.67,191.62 673.67,191.69 673.80,191.74 673.99,191.85 674.06,191.95 674.13,192.02 674.20,192.05 674.21,192.10 674.21,192.12 674.54,192.16 675.00,192.19 675.13,192.26 677.17,192.36 677.17,192.36 677.17,192.43 678.84,192.43 678.87,192.43 678.87,192.45 678.99,192.52 679.09,192.60 679.17,192.62 680.97,192.67 681.36,192.65 681.61,192.71 681.67,192.72 681.86,192.74 681.86,192.77 681.86,192.84 682.41,192.88 682.60,192.88 682.84,192.88 683.43,192.88 684.60,192.91 684.82,192.95 684.89,192.98 684.93,193.02 684.94,193.03 684.98,193.08 686.89,193.10 686.93,193.14 688.14,193.15 688.52,193.20 689.52,193.20 689.57,193.20 689.67,193.20 689.75,193.26 689.76,193.29 689.98,193.32 690.85,193.36 691.43,193.39 691.72,193.39 692.28,193.43 693.26,193.46 694.61,193.50 694.61,193.53 694.61,193.55 694.71,193.58 694.87,193.58 696.91,193.63 697.29,193.65 697.59,193.70 699.22,193.75 699.83,193.81 700.01,193.82 700.01,193.84 700.50,193.87 700.79,193.87 703.33,193.91 703.34,193.94 704.17,193.98 704.86,193.98 705.17,194.05 706.90,194.05 706.90,194.05 707.02,194.08 707.25,194.13 709.90,194.17 710.33,194.20 710.47,194.24 711.16,194.25 712.34,194.30 713.17,194.34 713.17,194.39 713.18,194.42 713.29,194.46 713.44,194.53 714.68,194.56 714.73,194.63 714.80,194.70 714.80,194.73 715.78,194.77 715.80,194.84 716.64,194.91 716.64,194.92 716.68,194.97 717.19,195.03 717.88,195.03 720.64,195.03 721.28,195.03 721.29,195.06 722.79,195.11 723.73,195.16 723.73,195.18 725.89,195.22 725.89,195.22 727.76,195.28 727.79,195.32 727.89,195.39 728.04,195.42 728.62,195.46 728.62,195.49 728.89,195.52 728.89,195.54 729.81,195.59 730.10,195.61 730.20,195.61 731.10,195.66 732.25,195.71 733.20,195.71 733.45,195.71 734.02,195.78 734.04,195.83 734.17,195.87 734.22,195.90 734.25,196.01 734.28,196.04 734.35,196.11 735.80,196.14 738.31,196.14 738.83,196.18 738.84,196.21 738.88,196.23 739.50,196.26 739.67,196.30 740.75,196.30 740.75,196.35 740.76,196.40 741.37,196.45 741.46,196.47 741.53,196.50 741.56,196.52 741.74,196.56 741.90,196.56 741.93,196.62 741.96,196.66 742.04,196.69 742.04,196.73 747.44,196.83 748.23,196.83 748.28,196.83 748.46,196.86 748.46,196.93 748.46,196.99 749.23,197.04 749.99,197.07 749.99,197.09 750.85,197.09 751.72,197.14 751.74,197.17 751.74,197.21 751.95,197.24 751.95,197.24 752.19,197.28 752.42,197.31 754.31,197.35 754.38,197.35 754.40,197.35 754.40,197.38 755.02,197.41 755.02,197.43 755.05,197.47 755.21,197.50 756.00,197.55 757.47,197.60 757.85,197.66 757.86,197.72 757.93,197.79 758.51,197.81 758.51,197.79 758.54,197.79 758.94,197.83 758.95,197.86 758.99,197.86 758.99,197.86 758.99,197.90 759.21,197.93 761.21,197.96 761.24,197.98 761.33,197.98 761.63,198.00 763.15,198.03 763.40,198.07 763.80,198.10 764.00,198.17 764.05,198.24 764.27,198.29 764.55,198.33 764.55,198.31 764.68,198.38 766.67,198.41 767.00,198.45 767.09,198.51 767.16,198.58 767.25,198.58 767.25,198.65 767.27,198.65 767.27,198.67 767.27,198.70 767.28,198.74 768.44,198.77 769.59,198.77 771.26,198.81 772.02,198.84 772.02,198.84 772.30,198.88 772.77,198.91 772.77,198.93 772.78,198.96 772.85,199.00 773.99,199.00 773.99,199.03 774.54,199.10 775.07,199.10 775.28,199.13 775.30,199.17 775.31,199.20 775.31,199.24 775.35,199.25 775.45,199.31 776.34,199.37 776.34,199.41 776.34,199.46 776.53,199.48 776.54,199.53 776.66,199.60 776.66,199.61 777.30,199.65 777.39,199.68 777.39,199.72 777.73,199.75 777.73,199.79 778.21,199.79 779.22,199.82 779.33,199.86 782.51,199.89 783.02,199.91 783.02,199.96 783.03,199.98 783.57,200.01 783.58,200.04 783.62,200.08 783.62,200.13 784.50,200.15 786.77,200.18 786.77,200.20 787.14,200.23 788.12,200.23 789.08,200.27 789.50,200.30 789.51,200.30 789.55,200.34 791.19,200.37 791.19,200.41 792.94,200.44 794.56,200.46 794.83,200.47 794.96,200.53 794.96,200.58 794.96,200.59 796.05,200.63 796.65,200.66 796.84,200.68 798.12,200.73 798.12,200.75 798.59,200.75 798.59,200.78 798.59,200.78 798.59,200.82 798.59,200.85 799.26,200.85 799.99,200.89 799.99,200.92 799.99,200.94 801.86,200.97 802.96,200.99 803.87,201.01 804.10,201.01 804.96,201.04 805.17,201.11 805.23,201.14 805.26,201.18 805.30,201.21 805.31,201.23 805.93,201.26 806.08,201.30 806.21,201.33 807.00,201.40 807.27,201.44 807.68,201.44 807.68,201.47 808.13,201.51 808.46,201.52 808.95,201.52 809.04,201.56 809.31,201.56 810.38,201.56 810.48,201.61 811.21,201.63 811.22,201.63 811.31,201.66 813.66,201.66 813.66,201.64 814.69,201.68 814.86,201.71 815.83,201.71 816.08,201.81 817.92,201.81 818.07,201.85 818.10,201.88 818.13,201.99 818.70,202.00 819.07,202.04 819.52,202.07 819.57,202.09 820.44,202.14 820.72,202.18 821.29,202.21 821.49,202.24 821.69,202.24 821.69,202.23 821.69,202.23 821.74,202.23 822.04,202.26 822.11,202.26 822.85,202.33 823.10,202.36 823.88,202.40 823.88,202.43 823.89,202.47 824.18,202.50 824.23,202.57 824.33,202.64 825.17,202.71 825.17,202.73 825.27,202.74 825.47,202.79 826.19,202.83 827.56,202.83 827.56,202.85 827.58,202.91 828.02,202.98 828.37,202.98 828.37,202.98 829.02,203.02 829.25,203.09 831.05,203.12 831.05,203.16 831.26,203.19 832.09,203.21 833.66,203.24 834.81,203.24 834.97,203.28 835.05,203.31 835.07,203.36 835.65,203.38 835.65,203.41 835.84,203.41 835.88,203.43 837.50,203.50 838.39,203.53 838.85,203.57 839.69,203.60 839.69,203.64 840.23,203.71 840.33,203.81 840.37,203.88 840.42,203.95 840.42,203.98 840.47,204.05 840.52,204.12 840.69,204.13 840.74,204.15 840.79,204.22 840.82,204.29 840.94,204.34 841.03,204.38 841.04,204.39 841.10,204.39 841.83,204.39 845.00,204.43 849.44,204.46 849.51,204.46 849.99,204.46 849.99,204.50 850.02,204.53 850.75,204.56 852.37,204.58 852.52,204.63 855.10,204.65 855.55,204.68 855.56,204.68 856.40,204.68 857.11,204.74 857.33,204.75 857.34,204.81 857.34,204.81 857.49,204.84 857.54,204.91 858.49,204.94 859.34,204.98 859.51,205.01 860.94,205.08 862.22,205.11 862.22,205.15 862.23,205.18 863.31,205.20 863.35,205.20 863.35,205.20 863.35,205.23 863.50,205.27 864.91,205.30 864.97,205.34 864.97,205.37 865.14,205.42 865.14,205.42 865.15,205.46 865.80,205.53 866.34,205.53 867.56,205.56 867.56,205.60 867.56,205.63 868.31,205.66 871.03,205.70 871.90,205.70 872.34,205.72 873.25,205.72 875.51,205.77 878.21,205.82 878.85,205.85 878.85,205.89 879.00,205.91 880.01,205.96 881.16,205.96 881.16,205.97 881.49,205.97 882.36,206.01 883.94,206.01 883.95,206.08 884.16,206.08 884.95,206.11 884.95,206.15 885.24,206.18 886.47,206.20 886.47,206.23 886.76,206.23 886.76,206.23 887.91,206.27 888.39,206.28 888.88,206.33 890.66,206.37 890.66,206.40 890.85,206.40 890.85,206.39 890.98,206.42 891.93,206.46 892.31,206.49 893.88,206.56 894.12,206.56 894.25,206.59 894.43,206.63 894.58,206.66 895.07,206.68 895.07,206.73 895.07,206.75 895.22,206.76 895.26,206.85 895.43,206.90 895.46,206.95 895.75,206.99 895.75,207.02 896.04,207.06 896.04,207.04 896.21,207.07 896.38,207.07 896.74,207.07 897.63,207.11 898.05,207.14 898.05,207.14 899.00,207.18 899.05,207.18 899.13,207.19 899.48,207.23 901.47,207.26 902.07,207.31 902.16,207.40 902.90,207.42 903.15,207.45 903.33,207.47 903.76,207.47 906.03,207.52 906.03,207.56 906.03,207.56 906.03,207.59 906.59,207.62 906.62,207.69 906.84,207.73 906.86,207.73 908.81,207.73 910.28,207.76 910.32,207.80 911.11,207.85 911.46,207.86 911.46,207.93 912.26,207.98 912.26,207.98 912.46,208.02 913.23,208.05 913.23,208.09 913.33,208.11 913.33,208.11 914.09,208.11 914.20,208.17 915.26,208.17 916.52,208.21 916.52,208.24 917.25,208.28 917.48,208.31 917.92,208.38 918.06,208.40 918.06,208.41 918.06,208.43 918.28,208.47 918.28,208.50 918.29,208.50 919.63,208.52 919.63,208.47 919.64,208.47 920.04,208.50 920.08,208.52 920.16,208.52 922.07,208.55 923.62,208.59 925.07,208.62 925.51,208.66 925.51,208.69 926.36,208.72 929.24,208.72 929.28,208.74 929.28,208.78 929.28,208.81 929.31,208.81 929.33,208.84 930.96,208.88 931.40,208.91 931.82,208.96 932.74,208.98 933.27,209.02 933.27,209.00 933.47,209.00 933.48,209.03 933.51,209.07 933.60,209.10 934.49,209.14 934.49,209.17 934.49,209.21 934.50,209.24 934.50,209.24 936.09,209.27 936.39,209.33 938.68,209.36 939.70,209.41 941.59,209.46 941.89,209.48 942.87,209.53 942.94,209.57 942.96,209.58 943.09,209.62 943.16,209.65 944.03,209.69 944.17,209.76 944.36,209.79 944.62,209.82 944.81,209.86 945.15,209.93 945.59,209.93 945.66,209.94 945.74,210.00 945.85,210.06 945.85,210.10 949.12,210.17 949.18,210.20 949.18,210.20 949.52,210.25 951.00,210.25 951.00,210.27 951.01,210.30 951.39,210.30 951.73,210.30 951.82,210.34 951.91,210.34 952.99,210.34 953.37,210.34 953.97,210.37 953.97,210.41 954.90,210.43 954.90,210.43 955.04,210.46 955.09,210.46 955.29,210.49 955.29,210.55 955.81,210.61 955.87,210.63 955.95,210.67 955.97,210.72 956.80,210.75 956.84,210.75 957.09,210.82 957.82,210.89 958.81,210.89 959.50,210.92 959.51,210.92 960.54,210.96 963.68,210.99 963.81,211.01 964.98,211.06 965.28,211.08 967.40,211.11 970.47,211.11 971.27,211.11 971.27,211.16 971.61,211.18 971.78,211.18 971.80,211.20 971.94,211.23 972.00,211.27 972.08,211.30 972.10,211.34 972.79,211.37 973.31,211.44 973.52,211.47 975.27,211.54 975.27,211.58 975.94,211.59 975.94,211.59 976.69,211.63 977.12,211.68 977.12,211.71 977.12,211.73 978.63,211.77 978.77,211.80 978.77,211.85 978.77,211.85 979.46,211.85 980.18,211.85 981.63,211.92 981.95,211.95 982.41,211.99 982.52,212.02 982.52,212.06 983.02,212.09 983.13,212.13 983.17,212.14 983.19,212.20 983.41,212.26 983.51,212.33 983.53,212.35 984.57,212.38 984.88,212.42 984.91,212.45 984.91,212.49 984.91,212.50 984.91,212.57 984.95,212.57 985.03,212.61 986.26,212.64 986.26,212.68 986.36,212.68 986.36,212.71 986.60,212.75 986.60,212.78 986.67,212.80 987.22,212.81 988.00,212.83 988.05,212.83 988.11,212.87 988.27,212.87 988.32,212.90 988.32,212.93 988.32,212.93 988.33,212.95 989.09,212.99 989.75,213.02 989.78,213.05 990.18,213.09 990.20,213.12 990.24,213.12 990.40,213.16 991.48,213.19 991.48,213.19 991.49,213.23 991.53,213.24 991.54,213.28 991.54,213.28 991.55,213.31 991.55,213.35 991.91,213.40 992.05,213.42 992.40,213.42 992.40,213.43 992.40,213.47 992.52,213.50 992.64,213.54 992.64,213.54 992.64,213.54 992.93,213.57 993.74,213.57 993.76,213.60 993.76,213.62 994.63,213.66 996.05,213.69 996.30,213.71 997.22,213.74 997.66,213.78 997.86,213.83 997.98,213.88 998.36,213.93 998.38,213.97 998.38,213.98 998.38,213.98 998.38,214.02 998.54,214.05 998.54,214.05 998.57,214.05 999.14,214.05 999.14,214.09 999.23,214.12 999.88,214.14 999.88,214.14 999.89,214.17 999.90,214.17 999.93,214.21 1000.17,214.17 1000.17,214.17 1000.95,214.21 1000.97,214.24 1001.06,214.28 1001.07,214.29 1001.11,214.33 1001.11,214.36 1001.55,214.40 1001.83,214.43 1002.41,214.46 1002.41,214.46 1002.43,214.50 1003.14,214.53 1003.20,214.55 1003.95,214.58 1004.26,214.58 1004.35,214.62 1004.35,214.67 1004.86,214.69 1004.86,214.69 1005.54,214.69 1005.67,214.74 1006.25,214.77 1006.26,214.81 1006.36,214.84 1006.79,214.88 1006.93,214.88 1007.43,214.91 1007.53,214.95 1007.55,214.98 1008.24,215.01 1008.49,215.05 1008.49,215.07 1008.49,215.12 1008.56,215.13 1009.12,215.17 1009.83,215.19 1010.32,215.20 1010.32,215.24 1010.32,215.27 1011.01,215.31 1011.41,215.31 1011.41,215.29 1011.41,215.32 1011.70,215.36 1011.71,215.39 1011.71,215.46 1011.75,215.50 1012.87,215.50 1013.35,215.50 1013.37,215.53 1013.58,215.55 1013.59,215.58 1013.94,215.62 1013.94,215.65 1013.94,215.63 1014.93,215.68 1015.34,215.72 1015.79,215.75 1015.79,215.77 1016.72,215.79 1016.72,215.80 1017.62,215.84 1017.90,215.87 1017.90,215.91 1017.91,215.94 1017.92,216.01 1017.93,216.05 1017.97,216.11 1020.21,216.15 1020.21,216.18 1021.63,216.25 1022.23,216.27 1022.28,216.30 1022.70,216.34 1022.91,216.39 1023.29,216.44 1023.29,216.48 1023.89,216.48 1023.89,216.51 1023.89,216.53 1024.07,216.56 1024.55,216.60 1024.70,216.63 1024.74,216.66 1025.13,216.70 1025.85,216.73 1025.85,216.77 1026.66,216.80 1027.43,216.84 1027.44,216.87 1027.44,216.90 1027.44,216.94 1027.45,216.99 1027.95,217.02 1028.10,217.02 1028.10,217.06 1029.03,217.06 1029.03,217.04 1029.20,217.08 1030.83,217.11 1030.89,217.11 1031.49,217.15 1031.98,217.18 1032.90,217.18 1032.91,217.21 1033.80,217.25 1033.99,217.25 1035.31,217.27 1036.25,217.27 1036.96,217.23 1037.11,217.23 1038.32,217.23 1038.49,217.23 1038.49,217.28 1038.54,217.35 1038.59,217.42 1038.59,217.42 1038.81,217.45 1038.81,217.49 1038.81,217.49 1039.57,217.49 1039.58,217.52 1039.68,217.56 1040.14,217.59 1040.29,217.63 1042.24,217.70 1042.35,217.71 1043.27,217.75 1043.31,217.80 1043.31,217.85 1043.66,217.87 1043.74,217.90 1043.90,217.94 1043.90,217.99 1043.90,217.99 1043.90,218.04 1044.64,218.07 1045.76,218.11 1045.76,218.07 1046.22,218.11 1047.45,218.14 1047.52,218.18 1047.68,218.18 1047.70,218.18 1049.35,218.18 1049.59,218.19 1049.59,218.19 1049.59,218.23 1049.60,218.28 1049.87,218.33 1049.87,218.38 1051.28,218.43 1051.51,218.47 1051.89,218.50 1051.89,218.49 1052.50,218.52 1052.50,218.55 1052.50,218.59 1052.96,218.62 1053.71,218.62 1053.71,218.62 1053.71,218.73 1055.56,218.73 1056.08,218.73 1056.21,218.74 1056.34,218.78 1056.35,218.81 1056.79,218.86 1057.19,218.88 1057.47,218.92 1057.65,218.92 1058.12,218.95 1058.44,218.95 1058.44,218.93 1058.44,218.93 1059.03,218.97 1059.58,219.00 1059.58,219.04 1059.58,219.04 1059.58,219.04 1059.58,219.04 1059.58,219.07 1059.81,219.07 1060.04,219.09 1061.06,219.09 1061.06,219.12 1061.84,219.14 1061.85,219.16 1061.97,219.17 1062.47,219.19 1062.55,219.22 1062.63,219.26 1062.65,219.28 1062.66,219.28 1062.83,219.31 1063.08,219.35 1064.01,219.38 1064.42,219.45 1064.45,219.48 1064.45,219.48 1064.69,219.48 1064.88,219.55 1064.92,219.59 1065.26,219.64 1065.58,219.64 1065.58,219.65 1066.41,219.71 1066.41,219.74 1067.66,219.77 1067.70,219.77 1067.70,219.81 1067.70,219.83 1067.70,219.86 1067.70,219.90 1067.70,219.93 1067.70,219.93 1067.70,219.96 1068.66,220.00 1068.66,220.03 1069.24,220.10 1069.65,220.10 1069.65,220.12 1070.06,220.15 1070.07,220.19 1070.07,220.19 1070.07,220.17 1072.27,220.19 1072.89,220.24 1072.94,220.29 1073.73,220.32 1073.73,220.31 1073.75,220.34 1074.04,220.38 1074.62,220.45 1075.10,220.45 1075.13,220.48 1075.34,220.51 1075.34,220.55 1075.34,220.58 1075.37,220.60 1075.37,220.60 1075.53,220.60 1075.71,220.63 1076.08,220.67 1076.08,220.70 1076.08,220.74 1076.09,220.77 1076.10,220.86 1076.10,220.87 1076.10,220.89 1076.11,220.93 1076.14,220.96 1076.18,221.00 1076.20,221.03 1076.20,221.06 1076.23,221.10 1076.26,221.10 1076.40,221.13 1076.43,221.15 1076.44,221.18 1076.44,221.22 1076.44,221.25 1076.54,221.30 1076.70,221.32 1076.70,221.36 1076.95,221.39 1077.08,221.44 1077.08,221.46 1077.08,221.48 1077.09,221.51 1078.52,221.51 1079.33,221.51 1079.34,221.55 1079.39,221.58 1079.94,221.61 1081.40,221.65 1081.60,221.68 1082.60,221.72 1082.97,221.77 1083.00,221.80 1083.03,221.85 1083.56,221.92 1083.93,221.94 1083.93,221.97 1083.94,221.97 1083.96,222.03 1083.96,222.06 1083.98,222.10 1084.39,222.13 1084.39,222.16 1085.20,222.20 1085.20,222.23 1085.21,222.23 1085.66,222.27 1085.69,222.27 1085.71,222.30 1085.73,222.32 1085.76,222.32 1085.82,222.35 1086.35,222.39 1086.62,222.39 1086.86,222.39 1087.30,222.42 1087.76,222.46 1088.43,222.49 1088.43,222.52 1088.43,222.54 1088.79,222.58 1088.79,222.58 1089.88,222.61 1089.88,222.65 1089.88,222.71 1092.15,222.75 1092.15,222.75 1092.21,222.78 1092.65,222.80 1094.08,222.83 1094.08,222.87 1094.37,222.90 1094.41,222.94 1094.43,222.99 1095.01,223.04 1095.34,223.07 1095.35,223.13 1095.45,223.14 1095.45,223.13 1095.45,223.16 1096.00,223.20 1096.26,223.23 1096.59,223.26 1097.15,223.30 1097.15,223.30 1097.15,223.30 1097.15,223.33 1097.15,223.35 1097.55,223.35 1097.56,223.38 1097.96,223.44 1098.14,223.45 1098.18,223.47 1098.29,223.50 1098.29,223.57 1098.36,223.64 1098.39,223.66 1098.39,223.64 1098.42,223.68 1098.92,223.71 1098.96,223.71 1099.01,223.75 1099.04,223.78 1099.09,223.81 1099.09,223.81 1099.57,223.85 1099.60,223.87 1099.65,223.90 1099.79,223.93 1100.11,223.93 1100.14,223.90 1100.14,223.93 1100.14,223.93 1100.70,223.97 1101.09,224.00 1101.11,224.02 1101.12,224.05 1101.20,224.09 1101.21,224.12 1101.27,224.16 1101.27,224.19 1101.51,224.23 1101.51,224.26 1101.82,224.29 1101.82,224.33 1101.92,224.35 1101.92,224.38 1101.92,224.42 1102.33,224.45 1103.17,224.47 1103.77,224.52 1103.85,224.52 1103.85,224.57 1104.68,224.60 1104.68,224.60 1104.69,224.64 1104.88,224.64 1105.09,224.71 1105.29,224.74 1105.29,224.78 1105.67,224.81 1105.78,224.84 1105.97,224.88 1106.17,224.91 1106.62,224.93 1106.62,224.93 1106.62,224.93 1106.67,224.97 1106.85,225.00 1107.00,225.03 1107.39,225.07 1107.39,225.07 1107.57,225.10 1107.57,225.12 1108.02,225.15 1108.09,225.19 1108.09,225.22 1108.23,225.26 1108.45,225.26 1108.47,225.29 1109.13,225.33 1109.14,225.36 1109.14,225.36 1109.87,225.38 1110.03,225.41 1110.05,225.45 1110.14,225.45 1110.14,225.50 1110.17,225.57 1110.22,225.55 1110.24,225.58 1110.55,225.62 1110.55,225.64 1111.14,225.67 1111.55,225.70 1111.84,225.74 1112.18,225.77 1112.52,225.88 1112.53,225.94 1112.53,225.98 1112.93,226.05 1112.97,226.12 1113.02,226.13 1113.08,226.13 1113.08,226.17 1113.17,226.19 1113.17,226.22 1113.23,226.27 1113.23,226.32 1113.53,226.36 1113.63,226.37 1113.63,226.39 1113.73,226.43 1113.73,226.46 1114.10,226.46 1114.70,226.46 1114.70,226.49 1114.73,226.53 1114.75,226.56 1114.81,226.60 1115.27,226.60 1115.43,226.62 1115.49,226.63 1115.61,226.70 1115.70,226.72 1115.73,226.75 1115.73,226.77 1115.74,226.79 1115.94,226.82 1116.08,226.86 1116.08,226.87 1116.25,226.91 1116.28,226.91 1116.28,226.94 1116.28,227.01 1116.39,227.08 1116.41,227.11 1116.94,227.11 1117.04,227.11 1117.30,227.15 1117.30,227.17 1117.51,227.20 1117.58,227.23 1117.86,227.23 1118.08,227.27 1118.45,227.30 1118.56,227.35 1118.70,227.37 1119.02,227.41 1119.02,227.39 1119.02,227.42 1119.13,227.46 1119.13,227.53 1119.20,227.56 1119.20,227.56 1119.24,227.63 1119.36,227.66 1119.79,227.70 1119.79,227.72 1120.10,227.75 1120.50,227.78 1120.50,227.82 1120.51,227.85 1120.57,227.87 1121.00,227.92 1121.00,227.96 1121.05,228.01 1121.16,228.02 1121.16,228.04 1121.29,228.08 1121.29,228.11 1121.33,228.11 1121.40,228.14 1122.27,228.18 1122.27,228.21 1122.27,228.25 1122.27,228.28 1122.27,228.30 1122.27,228.33 1122.27,228.33 1122.45,228.37 1122.45,228.37 1122.86,228.40 1122.86,228.44 1123.56,228.49 1123.73,228.54 1123.96,228.57 1123.96,228.59 1124.66,228.59 1124.66,228.63 1125.04,228.66 1125.41,228.69 1125.64,228.69 1125.64,228.73 1127.08,228.76 1127.11,228.80 1127.11,228.83 1127.11,228.88 1127.14,228.94 1127.17,229.00 1127.42,229.06 1127.42,229.11 1127.45,229.18 1127.75,229.24 1128.03,229.26 1128.04,229.30 1128.04,229.28 1128.61,229.28 1128.61,229.31 1128.70,229.35 1129.81,229.38 1129.81,229.38 1130.04,229.38 1130.39,229.42 1130.52,229.42 1130.52,229.43 1130.52,229.49 1130.63,229.52 1131.00,229.54 1131.72,229.57 1131.72,229.62 1131.79,229.66 1131.86,229.73 1131.92,229.78 1132.12,229.83 1132.12,229.83 1132.58,229.83 1132.87,229.90 1133.65,229.90 1134.07,229.93 1134.18,229.93 1134.18,229.97 1134.71,230.00 1134.95,230.00 1135.03,230.04 1135.50,230.09 1135.79,230.12 1136.23,230.12 1136.23,230.12 1136.23,230.14 1136.24,230.21 1136.52,230.22 1136.73,230.28 1137.00,230.29 1137.01,230.31 1137.01,230.34 1137.07,230.38 1137.18,230.38 1137.27,230.41 1137.72,230.45 1137.80,230.55 1138.77,230.59 1138.95,230.59 1139.08,230.60 1139.08,230.64 1139.16,230.67 1139.17,230.71 1139.19,230.74 1139.20,230.77 1139.20,230.81 1139.20,230.81 1139.20,230.84 1139.44,230.84 1139.44,230.86 1139.44,230.86 1140.11,230.86 1140.72,230.89 1140.72,230.93 1140.73,231.00 1140.73,231.03 1140.73,231.07 1140.79,231.10 1141.10,231.12 1141.10,231.19 1141.54,231.26 1141.56,231.29 1141.56,231.34 1141.56,231.36 1141.79,231.38 1142.44,231.43 1142.47,231.46 1142.47,231.50 1142.47,231.48 1142.93,231.48 1143.22,231.51 1143.23,231.55 1143.63,231.58 1143.65,231.62 1143.77,231.62 1143.88,231.62 1143.88,231.65 1143.88,231.67 1143.88,231.72 1143.92,231.82 1144.00,231.86 1144.52,231.84 1144.56,231.87 1144.57,231.91 1144.58,231.94 1144.74,231.98 1144.74,231.99 1144.91,232.03 1144.91,232.03 1144.91,232.06 1145.22,232.13 1145.63,232.17 1145.68,232.20 1145.68,232.27 1145.68,232.34 1145.68,232.37 1145.86,232.41 1146.20,232.42 1146.43,232.46 1146.43,232.51 1146.44,232.58 1146.45,232.65 1147.01,232.72 1147.03,232.77 1147.18,232.80 1147.18,232.82 1147.18,232.89 1147.18,232.89 1147.50,232.92 1147.50,232.96 1147.50,232.99 1147.90,233.03 1147.90,233.03 1147.96,233.03 1147.97,233.06 1147.97,233.09 1147.97,233.20 1147.97,233.42 1147.97,233.68 1147.97,233.80 1148.86,233.87 1148.87,233.92 1148.89,233.97 1148.89,234.01 1148.89,234.02 1148.89,234.02 1148.93,234.09 1148.93,234.09 1149.26,234.13 1149.31,234.19 1149.31,234.23 1149.31,234.30 1149.34,234.37 1149.64,234.40 1149.64,234.42 1149.67,234.45 1150.23,234.50 1150.26,234.54 1150.27,234.61 1150.27,234.64 1150.27,234.69 1150.27,234.73 1150.27,234.85 1150.27,234.99 1150.27,235.29 1150.27,235.60 1150.51,235.67 1150.81,235.71 1150.83,235.74 1150.83,235.71 1151.04,235.78 1151.07,235.84 1151.12,235.88 1151.14,235.90 1151.18,235.91 1151.37,235.93 1151.57,235.93 1151.74,235.96 1151.94,236.00 1151.94,236.03 1151.94,236.07 1151.94,236.10 1151.94,236.12 1151.95,236.15 1152.00,236.19 1152.00,236.22 1152.14,236.26 1152.14,236.26 1152.18,236.29 1152.38,236.33 1152.70,236.39 1152.74,236.46 1152.74,236.50 1152.74,236.57 1152.87,236.58 1152.91,236.62 1152.91,236.65 1153.22,236.65 1153.49,236.69 1153.49,236.72 1153.49,236.76 1153.49,236.74 1153.60,236.77 1153.78,236.77 1153.93,236.81 1153.93,236.84 1153.93,236.84 1153.97,236.88 1153.97,236.91 1153.97,236.91 1154.15,236.94 1154.50,236.96 1154.62,237.00 1154.69,237.03 1154.98,237.03 1155.03,237.06 1155.03,237.10 1155.03,237.13 1155.04,237.17 1155.04,237.20 1155.04,237.22 1155.07,237.25 1155.13,237.29 1155.21,237.32 1155.21,237.36 1155.27,237.39 1155.27,237.43 1155.30,237.46 1155.32,237.49 1155.72,237.51 1155.72,237.55 1156.03,237.56 1156.04,237.61 1156.09,237.65 1156.09,237.68 1156.13,237.68 1156.27,237.72 1156.46,237.75 1156.46,237.79 1156.46,237.80 1156.46,237.84 1156.47,237.87 1156.61,237.91 1156.65,237.94 1156.65,237.98 1156.90,238.01 1157.05,238.04 1157.09,238.08 1157.21,238.10 1157.27,238.13 1157.30,238.16 1157.30,238.20 1157.31,238.23 1157.34,238.23 1157.60,238.27 1157.61,238.27 1157.81,238.30 1157.89,238.34 1157.89,238.35 1157.90,238.39 1157.99,238.42 1157.99,238.46 1158.03,238.49 1158.11,238.53 1158.19,238.56 1158.28,238.59 1158.29,238.59 1158.32,238.61 1158.40,238.65 1158.51,238.68 1158.51,238.71 1158.56,238.71 1158.60,238.75 1158.60,238.78 1158.77,238.82 1159.21,238.85 1159.44,238.89 1159.45,238.90 1159.47,238.90 1159.53,238.94 1159.54,238.97 1159.58,238.97 1159.64,239.04 1159.64,239.11 1159.68,239.14 1160.04,239.18 1160.12,239.20 1160.17,239.23 1160.26,239.26 1160.26,239.30 1160.40,239.33 1160.50,239.37 1160.52,239.40 1160.54,239.44 1160.59,239.47 1160.70,239.51 1160.70,239.52 1160.72,239.56 1160.73,239.59 1160.81,239.59 1160.84,239.63 1160.85,239.63 1160.89,239.66 1160.93,239.69 1160.99,239.69 1160.99,239.71 1161.04,239.75 1161.05,239.78 1161.08,239.81 1161.12,239.85 1161.26,239.85 1161.26,239.85 1161.53,239.88 1161.54,239.92 1161.55,239.93 1161.55,239.90 1161.66,239.93 1161.70,239.97 1161.83,240.00 1161.84,240.04 1161.84,240.07 1161.86,240.11 1162.10,240.14 1162.19,240.18 1162.19,240.19 1162.28,240.23 1162.39,240.23 1162.59,240.23 1162.68,240.26 1162.69,240.30 1162.77,240.30 1162.86,240.33 1163.03,240.33 1163.06,240.36 1163.07,240.38 1163.08,240.38 1163.08,240.38 1163.08,240.42 1163.14,240.45 1163.14,240.52 1163.32,240.55 1163.39,240.59 1163.51,240.59 1163.68,240.61 1163.70,240.64 1163.75,240.69 1163.75,240.73 1163.78,240.81 1163.78,240.86 1163.95,240.93 1163.95,240.97 1163.95,241.03 1163.95,241.03" />
<rect x="840" y="61" width="13" height="13" fill="#1f77b4" /><text x="860" y="72" class="legend">sequential_gate: final -141.95</text>
<rect x="840" y="83" width="13" height="13" fill="#d62728" /><text x="860" y="94" class="legend">linear_score: final -37.82</text>
<text x="92" y="675" class="axis-label">09:30:01</text>
<text x="1164" y="675" class="axis-label" text-anchor="end">15:59:59</text>
<text x="30" y="355.00" class="axis-label" transform="rotate(-90 30 355.00)">Equity / cumulative net PnL</text>
</svg>